<?xml version="1.0" encoding="UTF-8"?>
<svg fill="#000000" id="b" data-name="Warstwa 2" xmlns="http://www.w3.org/2000/svg" viewBox="0 0 58.26 72.63">
  <defs>
    <style>
      .e {
        fill:#000000;
      }
    </style>
  </defs>
  <g id="c" data-name="Warstwa 1">
    <g id="d" data-name="Ikona_10">
      <path class="e" d="M28.36,63.9c-.42,1.3-2.4.23-2.91-.25l-1.83.48c-.48.13-1.4-1.18-1.32-1.72l.73-4.84,1.56.96c-.31-1.28-.83-1.82-2.11-2.85l-1.14,3.41-1.03-1.17c-.27-.31-1.03-.9-1.43-.82-1.25.23-1.44,2.2-2.41,2.07-.37-.05-1.02-.95-1-1.31l.24-4.2c.09-1.51-1.2-3.04-2.27-3.65-1.36-.76-2.96-.69-4.39-.52-.11-2.24,1.12-3.55,3.24-3.75l.96-3.95,6.28-2.67c2-.85,3.64-1.84,4.21-3.64.72-2.28.33-4.07-1.14-5.96l2.11-2.1c.38-.37.05-1.91.25-2.46.38-1.02,1.7-2.16,2.62-3.26-1.44.47-2.86,1.15-4.15,2.08.09,1.68-1.36,3.98-3.12,3.69-1.23-.2-2.63-.83-3.93-.56-4.7.98-9.58,2.37-8.52,7.36l.9,4.24c.29,1.38,1.43,2.39,2.95,2.93l-.83,3.27c-1.11.21-2.6.73-2.91,1.66-.52,1.54-1.05,3.22-3.03,3.31-.83.04-1.76-1.67-1.97-2.54C2.15,43.77-.06,43.1,0,41.27c.06-1.98,5-2.34,4.94-7.82-.03-2.17.76-4.09,2.19-5.71,2.65-2.98,2.12-6.67-.19-10.02,1,3.7.8,6.83-1.85,9.39-1.7,1.64-2.1,3.94-2.45,6.24-1.09-3.77-1.62-7.45-1.45-11.24.1-2.2,1.28-4.06,2.12-6.1l.75-3.49c1.53-3.14,7.39-8.11,8.68-7.59.35.14.67.99.68,1.38l.04,4.06,3.81,1.25c1.19.39-1.06,5.06,3.31,6.77-3.72-3.92.14-6.96-2.08-8.13l-2.99-1.57c-.1-2.07.14-4.02.79-6.16C20.49.55,25.15-.6,29.76.32c2.57.52,4.52.57,7.3,0,2.19-.44,6.41,1.74,6.4,4.17-.02,3.22.33,5.21,3.3,6.81,1.71.92,3.63.87,5.09-.98,5.67,4.07,1.01,8.95,3.9,11.49.99.87,1.61,2,1.39,3.28l-1.42,8.32c-.56-2.63-.94-4.41-2.49-6.22-3-3.5-2.61-4.66-2.14-9.44-1.94,3.43-2.79,7.09-.1,9.91,1.59,1.67,2.34,3.56,2.33,5.86-.02,5.38,4.38,5.58,4.89,7.52.47,1.83-2.16,2.42-2.88,5.6-.24,1.08-.91,2.52-1.88,3.08-.42.25-1.5-.1-1.84-.41-1.46-1.33.37-4.73-3.2-5.13-1.13-.13-2.36-1.23-1.92-2.62.94-.68,2.65-1.44,2.96-2.95l.91-4.45c.99-4.83-3.99-6.56-8.84-7.32-3.88-.6-8.03,3.56-7.18,7.89.46,2.36,2.1,3.21,4.31,4.32l5.65,2.83,1.49,3.13,2.88,1.16c.62.97.88,2.59.81,3.71-1.74-.5-3.51-.72-4.88.26-3.59,2.59-1.35,6.84-1.88,8.27-.16.42-1.21.85-1.52.64-.47-.74-1.31-2.08-2.1-1.93-.85.15-1.55,1.21-2.1,1.92l-1.31-3.37c-.86.84-1.4,1.4-2.2,2.78l1.6-.79c1.03,2.71,1.26,6.11-.31,6.51-.46.12-1.37-.23-1.93-.45-.82.36-2.12.82-2.98.56-.44-2.4-.13-4.77.93-6.77l.65-.35c.12-.06.12-.42.02-.49-.16-.12-.84-.29-.95-.15l-1.4,1.83c-.55-.7-1.24-1.58-1.73-1.89-.15-.1-1.03.39-.87.48,1.96,1.05,2.44,5.11,1.85,6.94ZM40.11,6.5c.27-1.32-1.22-2.14-2.19-2.39-.72-.18-2.39.06-2.59.93-.28,1.23.91,2.04,1.64,2.31.97.37,2.83.62,3.14-.86ZM41.36,20.34c.68-.91,1.11-2.32.87-3.6-.71-3.9-4.42-7.03-8.36-6.94-1.71.04-2.89,1.49-3.2,2.75-1.09,4.38,4.67,5.27,1.9,9.26,3.17-1.59,7.01.9,8.78-1.47ZM47.39,17.62c.53-.35.51-1.9.27-2.46-.22-.5-1.16-1.44-1.74-1.27-1.07.31-1.23,1.75-.98,2.52.27.83,1.17,2.06,2.45,1.22ZM31.22,50.75c1.3-.16,3.24-1.68,2.75-3.17l-3.29-10.07-1.53,1.7-1.68-1.61-3.11,9.57c-.57,1.76,1.12,3.51,2.71,3.61l2.06-4.1,2.09,4.05ZM19.06,48.23c.24-.91.41-2.04.35-2.9-.04-.53-1.11-1.31-1.63-1.34-.57-.04-1.57.68-1.53,1.14,1.32,1.02,1.97,1.76,2.81,3.11ZM42.02,44.97c-.13-.47-1.42-1.1-1.94-.98-.45.11-1.37.93-1.32,1.42l.29,2.82,2.97-3.26Z"/>
      <path class="e" d="M42.58,63.42l-1.97.94c-.66,3.02-1.32,5.87-3.57,8.27l.05-8.24c.01-2.23.5-4.17,2-6.24l1.82,3.28,1.37-1.09.3,3.08Z"/>
      <path class="e" d="M21.12,72.57c-2.16-2.39-2.72-5.36-3.59-8.2-.62-.35-1.59-.65-1.7-1.16-.15-.69-.08-1.68.03-2.73l1.53.87,1.7-3.21c1.49,1.89,2.07,3.9,2.06,6.15l-.03,8.28Z"/>
    </g>
  </g>
</svg>