<?xml version="1.0" encoding="UTF-8"?>
<svg fill="#000000" id="b" data-name="Warstwa 2" xmlns="http://www.w3.org/2000/svg" viewBox="0 0 73.81 69.43">
  <defs>
    <style>
      .e {
        fill:#000000;
      }
    </style>
  </defs>
  <g id="c" data-name="Warstwa 1">
    <g id="d" data-name="Ikona_2">
      <path class="e" d="M7.16,50.06c4.15,2.92,9.8.07,12.24,2.38l4.09,3.88c1.19,1.13,1.98,2.44,2.89,4.12.76-4.93-3.99-6.06-6.74-10.65l-1.56-.46c-.42-.12-.63-1.3-.38-1.66.35-.5.81-1.34.8-1.78-.01-.51-.83-1.07-1.5-1.43-.52-.27-.54-1.91-.03-2.21.63-.36,1.23-.69,1.41-1.07s-.28-1.38-.66-1.71c-.63-.56-.22-2.18.62-2.27.93-.1,1.88-.94,1.58-1.63s-.61-1.34-.54-1.77c.16-1.1,2.32-.85,2.46-1.67.06-.35-.03-1.17-.14-1.52l-.37-1.11c-.16-.47,1.11-.77,1.57-1.59.16-.29-.04-1.18-.33-1.35l-1.1-.64c-.29-.17-.1-1,.09-1.54s-.68-1.82-1.25-1.67l-1.3.35c-.3.08-.77-.67-.97-1.06-.18-.35-1.2-.78-1.47-.49l-1.21,1.29c-1.54-.05-2.66.58-3.02,2.34-.25,1.24-.13,2.76.69,3.87.68.93,2.08,1.24,3.78,1.38-.05.83-1.28,1.58-2.38,1.43-3.39-.47-5.36-3.49-4.97-6.88.53-4.57,4.68-7.43,9.33-6.79,4.9.67,8.36,5.05,8.19,10.05-.09,2.83-1.01,5.32-2.21,7.81-2.14,4.44-2.79,10.08.88,12.4,3.92,2.48,6.07,6.21,7.17,10.66,1.41-4.84-3.49-8.87-4.27-14.83-.85-.28-1.61-.91-1.69-1.55-.15-1.11.48-1.73,1.6-2.08l.57-2.21c-1.36-.42-1.6-1.06-1.43-2.17.14-.88,1.06-1.29,2.09-1.48.55-.1.97-1.54.66-2.01-.47-.7-.58-1.57-.22-2.22.7-1.27,2.72-.06,3.09-1.37.11-.39-.05-1.16-.23-1.83-.16-.58.78-1.84,1.38-1.84h1.52c1.2,0,.1-2.56.75-3.44.39-.53,1.26-.61,2.06-.51.44-.08,1.15-1.24.93-1.69-.27-.56-.61-1.36-.53-1.78.1-.48,1-.88,1.84-1.05.59-.12.92-1.63.54-2.12s-.82-1.15-.74-1.5c.1-.42.67-.91,1.22-1.38.36-.42.23-2.09-.27-2.48l-1.16-.9c-.27-.21.29-1.29.2-1.66-.38-1.53-2.59-3.01-3.98-3.15-2.1-.21-4.09.46-5.15,2.2-1.04,1.72-.5,3.55.52,5.5-2.12.02-2.95-1.64-3.41-3.21s-.02-3.42,1-4.9C31.57.71,34.7-.33,38,.09c7,.9,10.23,10.21,7.69,17.97-2.2,6.74-6.86,10.59-9.78,16.21-2.43,4.67-1.69,9.88,1.32,13.97,2.28,3.1,3.37,6.51,4.09,10.49.8-3.33,1.44-6.62,3.4-9.51,1.43-2.11,3.47-3.66,5.41-5.25,3.77-3.09,4.52-7.93,2-12.07-1.59-2.62-2.79-5.47-2.58-8.59.27-3.99,3.07-7.36,7.04-7.86,3.25-.41,6.27,1.73,6.77,4.87.4,2.53-1.16,5.44-3.84,4.89,1.48-1.57,2.12-3.08,1.39-4.72-.62-1.39-2.45-2.25-4.14-1.73-2.17.66-3.51,2.77-3.29,5.17.18,1.92,1.15,3.82,2.28,5.43,4.35,6.22,3.38,14.28-2.68,18.95-3.58,2.76-6.03,7.21-4.55,11.54.57-4.29,1.94-7.88,5.38-9.96,3.18-1.92,6.83-1.33,8.87,1.82l1.82,2.82c.73,1.12,1.92,1.85,3.24,1.67,1.15-.16,2.13-1.22,2.38-2.46s-.47-2.31-1.58-3.49c2.63-.31,3.9,2.34,3.54,4.73-.31,2.08-1.96,3.58-3.61,4.1-2.12.66-4.46.37-5.86-1.26l-2.67-3.09c-.55-.63-1.72-1.28-2.52-1.19-2.26.25-3.47,3.77-2.87,6.97.63,3.41-1.04,6.19-4.4,7.18-7.48,2.21-18.96,2.58-26.04-.23-2.47-.98-3.72-2.97-3.82-5.64-.08-2.39-1.89-5.43-4.47-5.34-.67.02-1.78,1.33-2.48.13-.3-.53-1.48-1.05-1.88-.68-.54.49-1.17.97-1.56.89s-1.05-.67-1.29-1.01l-.72-1.01c-.29-.41-1.59.65-2.82.03-.38-.19-.61-.88-.75-1.62-.44-2.28-3.38-.43-2.92-3.75.28-2.03-2.17-2.3-1.32-4.3.52-1.23.45-2.38.34-3.74l2.88-3.5c1.4-1.69,6.94-2.99,9.49,1,1.04,1.63,1.05,3.68,0,5.28-.85,1.31-2.49,2.36-3.71,1.33,2.02-1.19,2.76-3.37,1.65-4.96s-3.35-1.81-4.89-.41c-3.28,2.98-1.75,7.84,1.21,9.92Z"/>
      <path class="e" d="M60.31,37.07l4.16,1.8c1.57.68,3.39.09,4.63-1.06,1-.93,1.92-2.54,1.51-4.26-.25-1.05-1.15-2.23-2.02-2.55-1.11-.41-2.28.08-3.66.8-.03-.98.81-2.22,1.98-2.58,3.04-.94,6.01,1.01,6.71,4.14.96,4.24-1.82,8.33-6.11,9.34-2.58.61-5.31.04-7.75-.92l.55-4.71Z"/>
      <path class="e" d="M45.89,45.22c-1.96,1.94-3.35,4.02-4.48,6.64l-1.74-3.28c.07-6.99,4.75-13.24,11.9-13.32.47,1.67.23,3.56-.59,4.79-2.67.67-4.56,2.34-5.1,5.18Z"/>
      <path class="e" d="M37.91,46.18c-1.35-2.76-2.24-5.77-1.07-8.85,1.06-2.79,4.75-3.62,4.1-7.56l2.08-2.89c3.62,3.93,1.61,7.43-1.58,11.19-1.93,2.28-2.64,5.05-3.52,8.11Z"/>
      <path class="e" d="M34.87,21.73c.45.67-.63,2.33-1.6,2.53-2.56-1.53-3.72-4.81-2.51-7.56.62-1.43,2-2.66,3.63-2.22-1.06,1.35-1.89,2.49-1.87,3.87s.97,2.41,2.35,3.38Z"/>
    </g>
  </g>
</svg>