<?xml version="1.0" encoding="UTF-8"?>
<svg fill="#000000" id="b" data-name="Warstwa 2" xmlns="http://www.w3.org/2000/svg" viewBox="0 0 74.12 71.19">
  <defs>
    <style>
      .e {
        fill:#000000;
      }
    </style>
  </defs>
  <g id="c" data-name="Warstwa 1">
    <g id="d" data-name="Ikona_11">
      <path class="e" d="M42.87,68.37l-5.81-5.34-5.83,5.41-12.61,2.7-12.01-7.21,10.95,3.38,9.94-3.98,4.75-8.2c.17-3.87.36-7.3-1.46-10.92l2.83-1.7c1.99,1.95,4.79,2.07,6.79.06l2.79,1.53c-3.18,8.34-1.42,12.1,3.33,19.01l9.83,4.19,10.87-3.31-11.86,7.2-12.51-2.82Z"/>
      <path class="e" d="M29.57,41.83c-4.76-6.53-9.47-7.5-17.33-6.99-3.28,1.11-5.78,3.45-8.74,5.23l-3.49,11.48.26-13.25,8.67-9.68,6.86-1.91-1.38-8.82,4.4-11.65L30.36,0l-8.19,7.72c-.27,3.3-2.05,6.78-1.3,10.17.63,2.89,2.67,6.22,4.47,8.51,2.55,3.24,6.46,4.38,10.36,5.15l.04,3.09c-2.7.89-3.83,3.05-3.32,5.75l-2.84,1.44Z"/>
      <path class="e" d="M62.13,34.9c-8.25-.76-12.87.52-17.7,7.01l-2.76-1.53c.54-2.74-.78-4.9-3.4-5.76l.04-3.08c8.56-1.24,12.35-5.71,14.9-13.75.53-3.04-.63-7.02-1.56-9.84-1.71-3.25-5.36-4.57-7.44-7.7l10.96,5.99,4.37,11.43-1.22,8.93,6.92,2.06,8.46,9.56.4,13.34-3.56-11.37c-2.54-1.81-5.28-4.05-8.43-5.29Z"/>
      <path class="e" d="M46.15,57.83l-2.02-3.93c6.46-3,10.15-9.12,9.48-16.44l4.4-.4c.88,8.77-3.45,16.82-11.86,20.78Z"/>
      <path class="e" d="M30,53.84l-1.93,4c-8.11-3.63-12.9-11.7-12.02-20.8l4.52.34c-.75,7.07,2.72,13.49,9.43,16.46Z"/>
      <path class="e" d="M46.44,25.96c-5.7-4.39-12.94-4.45-18.7-.05l-2.49-3.86c7.11-5.15,16.34-5.13,23.64-.01l-2.44,3.93Z"/>
    </g>
  </g>
</svg>