<?xml version="1.0" encoding="UTF-8"?>
<svg fill="#000000" id="b" data-name="Warstwa 2" xmlns="http://www.w3.org/2000/svg" viewBox="0 0 52.13 70.96">
  <defs>
    <style>
      .e {
        fill:#000000;
      }
    </style>
  </defs>
  <g id="c" data-name="Warstwa 1">
    <g id="d" data-name="Ikona_7">
      <path class="e" d="M31.46,16.47l-2.23,19.93c-2.2.2-4.15.2-6.3-.06L19.12,2.18c-.08-.69.18-1.66.59-2.18l13.4.11-1.64,16.36Z"/>
      <path class="e" d="M49.05,52.09c-3.62,4.12-7.13,7.86-11.71,11.14l3.13-9.09,3.34-3.59c.9-.96,1.84-3.42,1.68-4.68l-.4-3.31-.06-15.57,2.69-3.54.05-6.14-4.48-4.5-7.39-.04.54-4.25,8.66.04,7.05,6.98-.07,10.37c-1.3,1.02-3.15,2.17-3.76,3.5l-2.23,15.56c2.32-3.89,3.35-7.68,5.39-11.6l.28,11.4c.07,2.76-2.94,3.51-2.69,7.33Z"/>
      <path class="e" d="M15.05,63.43c-4.64-3.26-8.31-7.13-11.88-11.24.33-4.03-2.88-4.42-2.77-8.17l.32-10.93,4.14,9.59c.37.85.89,1.66,1.5,2.42l-2.28-14.88C3.67,27.51,0,26.68,0,25.12l.03-9.6,6.91-6.89,8.78-.12.53,4.25-7.35.09-4.45,4.26c-.39,4.43-.62,6.57,2.67,9.82l-.1,16.85-.64,1.95,1.62,4.48c1.09,1.2,2.62,2.41,3.36,3.78,1.62,2.97,2.59,6.04,3.69,9.44Z"/>
      <path class="e" d="M32.29,65.5c-1.34,2.36-4.27,3.62-6.16,5.46-2.24-1.79-4.61-3.34-6.31-5.31l-4.13-11.03,10.42,8.41,10.34-8.43c-1.39,3.75-2.17,7.42-4.15,10.91Z"/>
      <path class="e" d="M30.91,50.64l-8.45.18c-.46,0-1.26-.8-1.26-1.22l-.02-7.35c0-.4.83-1.15,1.24-1.14l8.44.15.04,9.37Z"/>
    </g>
  </g>
</svg>