<?xml version="1.0" encoding="UTF-8"?>
<svg fill="#000000" id="b" data-name="Warstwa 2" xmlns="http://www.w3.org/2000/svg" viewBox="0 0 65.69 68.18">
  <defs>
    <style>
      .e {
        fill:#000000;
      }
    </style>
  </defs>
  <g id="c" data-name="Warstwa 1">
    <g id="d" data-name="Ikona_8">
      <path class="e" d="M19.48,60.84c-2.33-2.15-4.98-2.7-7.81-1.25-2.26-6.95,2.49-13.43-.07-16.72-2.17-2.79-5.56-.14-7.35-3.03l18.57-9.25c.77,1.83,2.75,2.82,4.51,1.93l9.39-4.69c1.1.65,2.1,1.16,3.28,1.55l19.56-9.88.37-2.84,3.83-1.87c1.34,2.87,1.05,5.71-.45,8.28l-24.32,12.14-3.62-1.55-.54,4.74c-.13,1.12-.44,3.06-1.58,3.61l-8.26,3.97c-.52.25-1.29,1.41-1.22,2.04l1.31,11.55-5.63,1.28ZM32.04,40.24c1.08-.84.87-3.11.96-4.28.1-1.27-1.24-3.05-2.52-2.42l-6.68,3.31c-1.4.7-1.26,2.98-.69,4.07s1.83,2.64,3.35,2.14c1.87-.61,3.89-1.52,5.57-2.82ZM16.79,38.26l2.64-1.45c.3-.16.5-1.09.29-1.33-.16-.18-.94-.44-1.15-.32l-3.19,1.75c-.27.15-.14,1.19.15,1.31.23.09,1.04.17,1.26.05Z"/>
      <path class="e" d="M33.53,16.17c-1.09.55-1,2.69-.85,3.9l-4.52,2.44-2.18-4.79.82-3.57L53.15.89c1.65.45,3.12.96,4.56,1.75l1.71,2.82c-1.04.71-2.55,1.52-3.6,1.72-1.35-.71-2.41-1.02-3.69-.38l-18.61,9.38Z"/>
      <path class="e" d="M3.12,30.16c-.05-2.26,1.75-3.05,3.47-3.8l3.74-1.61,1.93,3.77c.28.56,1.75,1.26,2.3.98l5.76-2.97c.73-.38,1.04-2.07.7-2.77l-1.71-3.58,4.99-2.55,2.65,5.45-3.67,1.89c-1.51.78-1.75,2.59-1.04,4.33l-6.16,3.08-12.77,6.27-.19-8.49Z"/>
      <path class="e" d="M36.4,23.69c-.32,0-.8-1.13-.53-1.28l1.47-.84-.6-3.77c-.06-.37.34-1.28.67-1.44.39-.2,1.45.16,1.74.56l4.38,5.91-1.57-7.8c-.06-.28.33-1.13.55-1.31.28-.22,1.26-.15,1.51.18l4.94,6.22-1.62-7.62c-.07-.32.22-1.14.44-1.36.27-.28,1.39-.16,1.66.19l4.74,6.18-1.56-7.39c-.08-.38.25-1.29.52-1.4,1.26-.52,2.59,1.04,3.89,2.88l3.98-1.91c.24-1.24.68-2.15,1.47-2.44.95-.36,2.15.01,2.7.61.64.69.67,2.01.16,2.88-.3.51-1.16,1.23-1.66,1.2s-1.41-.5-2.06-.84l-5.09,2.36-2.2-2.54,1.52,7.21c.09.44-.35,1.41-.71,1.5s-1.3-.15-1.54-.45l-4.54-5.8,1.52,7.32c.09.42-.38,1.56-.79,1.62s-1.28-.24-1.56-.59l-4.56-5.81,1.53,7.29c.09.45-.3,1.61-.72,1.78-.49.19-1.54-.3-1.89-.78l-4.21-5.82.59,3.77c-.38.54-1.82,1.54-2.56,1.54Z"/>
      <path class="e" d="M26.31,60.78c1.34-.29,2.17,1.19,2.14,2.05-.04.99-.74,2.08-1.91,2.37l-9.44,2.33c-1.68.41-2.99,1.11-4.41.18-1.4-.92-2.27-2.48-1.92-4.35.33-1.74,1.94-2.89,3.49-3.12,1.76-.26,3.28.59,4.39,2.19l7.67-1.65ZM16.37,64.23c0-.88-.71-1.59-1.59-1.59s-1.59.71-1.59,1.59.71,1.59,1.59,1.59,1.59-.71,1.59-1.59Z"/>
      <path class="e" d="M26.88,31.18c-1.41.71-2.36-.23-2.86-1.34-.46-1.04-.78-2.15-.59-3.38l10.13-5.12,2.65,5.16-9.34,4.68Z"/>
      <path class="e" d="M18.8,25.86l-5.12,2.39-2.12-4.46,6.17-3.25,1.67,3.04c.37.66.21,1.91-.6,2.29Z"/>
      <path class="e" d="M50.58.74l-5.22,2.54c.03-1.42.61-2.48,1.59-2.99,1.03-.54,2.37-.26,3.62.45Z"/>
      <path class="e" d="M1.95,28.84l-.43,4.44c-1.17-.45-1.61-1.41-1.51-2.66.08-1.02.39-1.83,1.94-1.78Z"/>
      <path class="e" d="M28.21,40.71c-.77,1.21-3.38.46-3.86-1.26-.1-.37-.06-1.34.2-1.61s1.11-.39,1.34-.32l2.32,3.19Z"/>
    </g>
  </g>
</svg>