<?xml version="1.0" encoding="UTF-8"?>
<svg fill="#000000" id="b" data-name="Warstwa 2" xmlns="http://www.w3.org/2000/svg" viewBox="0 0 55.94 72.06">
  <defs>
    <style>
      .e {
        fill:#000000;
      }
    </style>
  </defs>
  <g id="c" data-name="Warstwa 1">
    <g id="d" data-name="Ikona_2">
      <path class="e" d="M37.14,67.14c-2.23,3.2-5.33,4.86-8.85,4.92s-6.84-1.47-9.07-4.45c-1.7-2.27-3.52-4.21-5.82-5.96-1.31-.99-2.59-2.43-3.14-3.96l-2.2-6.09c2.71,1.15,4.72,2.43,6.91,4.28-.89-2.2-2.6-3.84-4.6-5.14C4.67,47.04.85,41.36.17,34.44-1.52,17.2,9.55.26,27.64,0c18.06-.26,29.47,16.25,28.21,33.89-.5,6.98-4.18,12.67-9.87,16.6-1.86,1.28-3.86,2.46-4.72,4.91,2.11-1.44,4.05-2.63,6.57-3.81l-1.93,5.62c-1.37,3.98-5.51,5.27-8.77,9.93ZM47,14.54c0-1.37-1.11-2.49-2.49-2.49s-2.49,1.11-2.49,2.49,1.11,2.49,2.49,2.49,2.49-1.11,2.49-2.49ZM13.93,14.56c0-1.37-1.11-2.49-2.49-2.49s-2.49,1.11-2.49,2.49,1.11,2.49,2.49,2.49,2.49-1.11,2.49-2.49ZM23.6,17.18c0-2.11-1.71-3.81-3.81-3.81s-3.81,1.71-3.81,3.81,1.71,3.81,3.81,3.81,3.81-1.71,3.81-3.81ZM40.05,17.18c0-2.1-1.71-3.81-3.81-3.81s-3.81,1.71-3.81,3.81,1.71,3.81,3.81,3.81,3.81-1.71,3.81-3.81ZM10.57,22.55c0-1.39-1.12-2.51-2.51-2.51s-2.51,1.12-2.51,2.51,1.12,2.51,2.51,2.51,2.51-1.12,2.51-2.51ZM50.45,22.54c0-1.39-1.13-2.52-2.52-2.52s-2.52,1.13-2.52,2.52,1.13,2.52,2.52,2.52,2.52-1.13,2.52-2.52ZM33.99,27.77c0-3.31-2.68-5.99-5.99-5.99s-5.99,2.68-5.99,5.99,2.68,5.99,5.99,5.99,5.99-2.68,5.99-5.99ZM18.47,26.46c0-1.79-1.45-3.24-3.24-3.24s-3.24,1.45-3.24,3.24,1.45,3.24,3.24,3.24,3.24-1.45,3.24-3.24ZM44.03,26.47c0-1.79-1.45-3.24-3.24-3.24s-3.24,1.45-3.24,3.24,1.45,3.24,3.24,3.24,3.24-1.45,3.24-3.24ZM13.74,36.32c0-2.43-1.97-4.41-4.41-4.41s-4.41,1.97-4.41,4.41,1.97,4.41,4.41,4.41,4.41-1.97,4.41-4.41ZM21.67,34.57c0-1.37-1.11-2.49-2.49-2.49s-2.49,1.11-2.49,2.49,1.11,2.49,2.49,2.49,2.49-1.11,2.49-2.49ZM51.05,36.31c0-2.43-1.97-4.4-4.4-4.4s-4.4,1.97-4.4,4.4,1.97,4.4,4.4,4.4,4.4-1.97,4.4-4.4ZM39.33,34.58c0-1.36-1.11-2.47-2.47-2.47s-2.47,1.11-2.47,2.47,1.11,2.47,2.47,2.47,2.47-1.11,2.47-2.47ZM24.5,45.42c0-3.03-2.45-5.48-5.48-5.48s-5.48,2.45-5.48,5.48,2.45,5.48,5.48,5.48,5.48-2.45,5.48-5.48ZM42.49,45.45c0-3.02-2.45-5.48-5.48-5.48s-5.48,2.45-5.48,5.48,2.45,5.48,5.48,5.48,5.48-2.45,5.48-5.48Z"/>
      <circle class="e" cx="28.05" cy="27.74" r="2.21"/>
      <circle class="e" cx="19.01" cy="45.4" r="2.09"/>
      <circle class="e" cx="36.98" cy="45.38" r="2.1"/>
      <circle class="e" cx="9.3" cy="36.28" r="1.68"/>
      <circle class="e" cx="46.62" cy="36.27" r="1.69"/>
      <circle class="e" cx="19.76" cy="17.18" r="1.46"/>
      <circle class="e" cx="36.24" cy="17.16" r="1.47"/>
      <circle class="e" cx="15.26" cy="26.42" r="1.26"/>
      <circle class="e" cx="40.77" cy="26.43" r="1.24"/>
    </g>
  </g>
</svg>