<?xml version="1.0" encoding="UTF-8"?>
<svg fill="#000000" id="b" data-name="Warstwa 2" xmlns="http://www.w3.org/2000/svg" viewBox="0 0 73.27 65.49">
  <defs>
    <style>
      .e {
        fill:#000000;
      }
    </style>
  </defs>
  <g id="c" data-name="Warstwa 1">
    <g id="d" data-name="Ikona_13">
      <path class="e" d="M35.43,65.01c-7.45,1.23-14.92.11-20.92-3.6,13.14,2.69,25.11-4.26,29.56-16.39,2.2-6.01,2.42-12.34,1.79-18.86l-10.87,1.77L54.16,0l19.1,27.89-10.87-1.67c.16,5.1.04,9.66-1.07,14.39-2.97,12.68-12.82,22.25-25.9,24.4Z"/>
      <path class="e" d="M10.89,56.9c-3.26-1.62-5.5-3.66-7.23-6.7C1.16,45.84-.42,41,.1,35.69l7.41,8.87c.09-4.4.33-7.96,1.96-11.64,1.95-4.39,5.23-8.33,10.13-9.74-6.19,4.9-8.88,12.64-6.01,19.85,3.73,9.38,13.96,13.04,23.28,8.38-6.29,8.01-17.13,9.88-25.98,5.49Z"/>
    </g>
  </g>
</svg>