<?xml version="1.0" encoding="UTF-8"?>
<svg fill="#000000" id="b" data-name="Warstwa 2" xmlns="http://www.w3.org/2000/svg" viewBox="0 0 65.18 65.19">
  <defs>
    <style>
      .e {
        fill:#000000;
      }
    </style>
  </defs>
  <g id="c" data-name="Warstwa 1">
    <g id="d" data-name="Ikona_16">
      <path class="e" d="M64.25,47.7l-.03,11.13-6.39,6.37-11.03-.02-2.89-2.97h-23.59s-2.96,2.97-2.96,2.97H6.36S0,58.86,0,58.86v-11.03s2.67-2.62,2.67-2.62v-25.25S.02,17.29.02,17.29l-.02-10.92L6.29.01h10.97s3.07,3.02,3.07,3.02l29.81.05-2.96,3.74H8.55c-.83.7-1.6,1.49-2.18,2.4v47.05s2.11,2.18,2.11,2.18l47.22-.02,2.19-2.17v-30.98s3.72-4.43,3.72-4.43l.03,24.32,2.6,2.52Z"/>
      <polygon class="e" points="10.15 30.59 19.45 22.36 29.83 34.75 55.41 2.3 65.18 10.83 29.95 52.82 10.15 30.59"/>
    </g>
  </g>
</svg>