<?xml version="1.0" encoding="UTF-8"?>
<svg fill="#000000" id="b" data-name="Warstwa 2" xmlns="http://www.w3.org/2000/svg" viewBox="0 0 68.95 68.7">
  <defs>
    <style>
      .e {
        fill:#000000;
      }
    </style>
  </defs>
  <g id="c" data-name="Warstwa 1">
    <g id="d" data-name="Ikona_9">
      <path class="e" d="M49.93,41.1c-4.79,4.09-12.22,2.88-16.44-2.95l5.21-4.41c1.14,1.06,2.32,1.77,3.61,1.8,1.2.03,2.47-.84,3.48-1.72l15.09-13.02c.51.78,1.19,1.95,1.75,2.3l4.83,3-17.54,15Z"/>
      <path class="e" d="M34.86,28.82l-5.32,4.47c-4.4-5.56-4.79-11.57.06-16.77L47.55.94c.53,3.11,1.45,5.77,3.61,7.81l-16.3,14.08c-1.67,1.44-1.57,3.96,0,6Z"/>
      <path class="e" d="M33.81,62.65c.67.31,1.15.65,1.42.97s.19,1.71-.2,1.91l-6.1,3.16c-.94-.22-1.89-1.55-2.28-2.43-3.26-7.38-.54-13.33-6.75-12.21-.45-.43-1.23-2.13-1.28-2.54,1.18-.65,1.58-.92,2.33-1.56l7.84-6.61,6.43,1.1.16,3.83c.07,1.73-.29,2.72-1.64,3.84l-3.22,2.66c-.28.23-.68,1.28-.45,1.52l1.23,1.26c.87.89-1.13,3.41,2.52,5.09ZM33.62,49.73c.39-1.38-.05-3.79-1.04-4.26-1.02-.49-3.8,1.65-4.73,3.13-.85,1.35.61,3.84,2.17,3.82,1.24-.01,3.24-1.41,3.6-2.7Z"/>
      <path class="e" d="M21.8,47.67c-1.26-.37-2.2-1.5-2.7-3.02l5.92-5.3c.48-.43,1.06-1.57.97-2.15-.33-2.19-2.96-2.09-4.26-3.94l4.06-3.55,3.17,5.09c.53-.03,1.48-.35,1.8-.63l7.7-6.6,2.29,2.63-8.59,7.21c-.03.5.12,1.56.44,1.89l3.71,3.82-7.71-1.26-6.81,5.82Z"/>
      <path class="e" d="M11.14,62.96l-6.4-8.27c-.85-1.09-.95-2.69-.5-3.97l3.46-.44,5.2-4.28,5.39,7.7-4.99,4.42-.11,6.33c-.67-.29-1.61-.9-2.06-1.48Z"/>
      <path class="e" d="M16.04,42.92c.15-.12.5-.7.33-.76-.23-.08-.81-.1-1.03.04l-1.97,1.18.39-3.12,4.5-3.99,1.72,2.08c.17.21.76.48,1,.51.32.05.75-.98.55-1.25l-1.78-2.44c.14-.22.65-.73.85-.61l1.13.64,3.31,2.23-6.66,6.07c-.86.78-.25,2.76.41,3.49l2.08,2.3-2.82,1.6-4.41-6,2.43-1.98Z"/>
      <path class="e" d="M12.81,65.87c-.26.4-1.31,1.3-1.97,1.45-.81.18-2.12-.48-2.61-1.11L.91,56.74c-.78-1.12-1.03-2.2-.86-3.85l2.49-2.06c.01,1.18-.2,2.75.27,3.37l7.05,9.25c.75.98,1.39,1.39,2.96,2.42Z"/>
      <path class="e" d="M51.05,24.1c-.84.19-2.71-.34-3.61-.29-1.96.1-2.25,3.26-5.89,4.43-.27.09-1.07-.5-1-.78.51-1.98,2.87-2.15,2.93-3.33l.21-4.12,3.8-2.93.82,1.01-3.03,2.67c-.49.43-.25,2.25-.12,2.83,1.33-1.36,2.1-1.83,3.66-1.15,2.38,1.04,3.68-1.9,4.51-1.62l1.45.49-3.73,2.78Z"/>
      <path class="e" d="M65.71,17.12c.59-1.57-1.41-2.72-2.85-2.31l-3.22-1.89c1.61.03,2.9.5,4.11,1.09l-.4-2.36-.44-2.6c2.68,1.35.13,3.96,4.04,5.49,1.2,1.46.36,3.77-.71,5.23l-1.02-.97c-.25-.24.3-1.23.47-1.7Z"/>
      <path class="e" d="M51.07,20.12c-1.15-1.2-.43-2.41.25-3.53.73-1.21,1.36-1.76,2.98-1.44,2.4.47,1.84-2.21,3.92-2.89-.35,1.51-.73,2.79-1.68,3.92-.52.62-2.32.53-3.39.41l-2.08,3.53Z"/>
      <path class="e" d="M60.43,8.76c-.31-1.03-.52-2.33-1.06-2.82-.69-.62-2.01-.85-3.01-.84l.72,1.61c-1.31.24-2.2-.66-2.4-1.92l-1.98-1.51c1.27-.54,2.3-.24,3.48.43l2.56.13,2.26,2.12-.57,2.8Z"/>
      <path class="e" d="M52.67,6.66c.66,2.14-3.44.63-3.72-6.64,2.04-.17,2.13,1.54,2.59,3l1.13,3.64Z"/>
      <path class="e" d="M67.36,24.57l-4.7-3.24c-.34-.23-.25-1.53.13-1.71l5.57,2.97c.35.18.65,1.32.57,1.66-.09.41-1.18.59-1.57.32Z"/>
      <path class="e" d="M37.58,26.6l-1.73,1.07c-1.1-1.3-.93-3.25.63-4.52l1.1,3.45Z"/>
      <path class="e" d="M44.25,33.22c-.45.51-1.48,1.01-2.24.9-.63-.09-1.69-.76-2.05-1.26.37-.48,1.38-1.19,1.78-.97l2.52,1.33Z"/>
      <path class="e" d="M31.8,50.39c-.36.3-1.2.73-1.61.64-.48-.1-1.19-.77-1.36-1.23s.58-1.53.99-1.5l1.98,2.09Z"/>
    </g>
  </g>
</svg>