<?xml version="1.0" encoding="UTF-8"?>
<svg fill="#000000" id="b" data-name="Warstwa 2" xmlns="http://www.w3.org/2000/svg" viewBox="0 0 58.26 70.12">
  <defs>
    <style>
      .e {
        fill:#000000;
      }
    </style>
  </defs>
  <g id="c" data-name="Warstwa 1">
    <g id="d" data-name="Ikona_12">
      <path class="e" d="M35.69,68.65l-5.4,1.47.03-5.54c0-.42-.45-1.15-.81-1.34s-1.57.25-1.57.67l-.03,6.12-5.22-1.45v-4.4c0-.39-.59-1.11-.97-1.15-.52-.06-1.29.62-1.28,1.12l.02,3.68-4.43-2.66-.86-8.83c1.69.93,2.94,2.45,3.81,4.05.04-2.46-1.55-5.11-3.63-6.06l-7.62,2.24L.78,48.56l3.31-5.4c1.12-1.83-.73-6.37,1.43-8.46l3.69-3.58-1.11-11.3-4.75-4.79C11.13,1.7,27.78-3.89,41.47,2.9l-2.94,8.22c-1.7.22-3,1.12-3.3,2.35-.43,1.76.37,3.21,1.71,3.83,1.61.74,3.19.18,4.1-1.25.82-1.29.3-3.01-.76-4.27l2.61-8.25c4.93,2.68,9.08,6.45,11.93,11.58l-4.59,4.7-1.14,11.38,2.91,2.62c3.54,3.18,1.12,7.22,2.12,8.91l3.42,5.82-7,8.12-7.63-2.42c-2,.96-3.67,3.42-3.52,5.86.95-1.52,1.98-2.95,3.78-3.76l-.94,8.94-4.38,2.57-.02-3.66c0-.45-.63-1.28-1.04-1.26-.51.01-1.21.75-1.2,1.28l.11,4.44ZM21.65,46.53l3.04-3.01.02-3.93c0-.63-.97-1.7-1.57-1.89l-10.09-3.21-4.77,3.29c-.8,7.16.89,7.06,2.84,10.11.39.61,1.47,1.23,2.1,1.05l8.43-2.42ZM46.2,49.06c1.43-2.1,3.06-3.33,3.75-5.29.6-1.69.21-4.27.03-6.08l-4.78-3.24-11.13,3.67c-.48,1.82-1,3.66-.26,5.39.47,1.1,2.3,2.83,3.43,3.14l8.96,2.41ZM31.54,56.82l1.99-2.15-2.93-7.03c-.37-.88-2.58-.65-2.92.15l-2.64,6.21c-.46,1.09,1.08,2.8,1.97,2.38l2.06-2.28,2.47,2.73Z"/>
      <path class="e" d="M7.48,30.55l-4.05,3.55c-.6,1.67-.84,3.26-1.06,5.29-3.07-7.3-3.33-15.45.22-22.81l3.98,4.1.91,9.88Z"/>
      <path class="e" d="M56.01,39.32c-.4-4.67-1.23-5.8-5.1-8.63l.76-10,4-4.03c2.12,4.51,3.04,9.35,2.38,14.37l-2.04,8.28Z"/>
      <circle class="e" cx="38.26" cy="14.41" r="1.45"/>
    </g>
  </g>
</svg>