<?xml version="1.0" encoding="UTF-8"?>
<svg fill="#000000" id="b" data-name="Warstwa 2" xmlns="http://www.w3.org/2000/svg" viewBox="0 0 65.92 63.62">
  <defs>
    <style>
      .e {
        fill:#000000;
      }
    </style>
  </defs>
  <g id="c" data-name="Warstwa 1">
    <g id="d" data-name="Ikona_1">
      <path class="e" d="M24.31,56.78L6.64,39.07c-.57-.58-.27-2.11.22-2.64s2.14-.93,2.75-.43c.95.79,1.46,1.34,2.4,2.34l24.32-24.43c1.46-1.47,3.82-1.36,5.24-.13l1.82,1.58,3.39-3.31c.51-.5,1.64-.21,2.37.58L60.51,1.24C61.43.32,62.98,0,64.36,0l-3.09,3.44-10.53,10.68c.66.52,1.27,1.92.85,2.38l-3.4,3.68,1.59,1.8c1.64,1.86,1.11,3.96-.5,5.58l-23.96,24.15,1.9,1.85c.92.9,1.13,2.18.29,3.13-.75.84-2.26,1.02-3.19.08ZM47.59,25.74c.74-.69.77-1.79.18-2.38l-7.7-7.69c-.38-.38-1.53-.32-1.96,0l-24.37,24.48,9.81,9.77,24.04-24.17Z"/>
      <path class="e" d="M10.94,63.05L.91,53.04c-.73-.73-1.1-1.42-.82-2.33.26-.83,1.86-1.55,2.52-.93l3.17,2.98,5.69-5.7,5.16,5.09-5.8,5.73,3.03,3.08c.49.5.27,1.88-.25,2.28-.75.57-1.96.54-2.68-.18Z"/>
      <path class="e" d="M65.54,13.96c.92,1.69.04,3.72-1.32,4.63-1.28.86-2.97.8-4.33-.4-2.86-2.54.17-6.26,2.43-10.12l3.22,5.89Z"/>
      <path class="e" d="M45.67,60.29l4.11-7.22c1.72.54,2.72.51,4.13-.1l4.12,7.33c-4.09,2.25-8.38,2.15-12.37,0Z"/>
      <path class="e" d="M47.73,49.29h-8.05c-.14-4.48,2.17-8.42,5.93-10.67l4.05,6.99c-1,1.08-1.53,1.81-1.92,3.67Z"/>
      <path class="e" d="M56.18,49.31c-.45-1.51-1.05-2.66-2.15-3.64l4.03-7.01c3.93,2.18,5.91,6.12,6.12,10.6l-8,.05Z"/>
      <circle class="e" cx="51.91" cy="49.34" r="2.52"/>
      <path class="e" d="M23.84,38.02c.28.29,1.12.55,1.43.34s.41-1.28.11-1.56l-2.69-2.57,3.69-3.68,2.63,2.65c.22.23,1.08.37,1.25.13.21-.29.26-1.11.14-1.33l-2.35-2.48h12.73s-17.19,17.42-17.19,17.42l-6.81-6.73,4.68-4.67,2.38,2.48Z"/>
      <path class="e" d="M38.81,23.58c-.83-.68-2.15-1.97-3.04-2.88l.32-.89c.09-.27,1.12-.22,1.32-.03l1.95,1.9c.16.16.4.79.46,1,.09.28-.74.99-1,.9Z"/>
      <path class="e" d="M33.39,27.79l-2.04-2.15c-.31-.33.7-1.62,1.04-1.33l2.3,2.03c.22.2.23.97.17,1.25s-1.23.46-1.47.21Z"/>
    </g>
  </g>
</svg>