<?xml version="1.0" encoding="UTF-8"?>
<svg fill="#000000" id="b" data-name="Warstwa 2" xmlns="http://www.w3.org/2000/svg" viewBox="0 0 60 68.7">
  <defs>
    <style>
      .e {
        fill:#000000;
      }
    </style>
  </defs>
  <g id="c" data-name="Warstwa 1">
    <g id="d" data-name="Ikona_4">
      <path class="e" d="M40.69,53.17l-3.72,13.12c-3.48,3.06-10.1,3.39-13.53-.02-2.01-4.46-2.79-9.62-4.26-14.38-.59-1.9-1.69-3.59-3.09-4.93l-8.46-8.09c-.94-.9-2.76-2.06-2.75-3.53l.07-12.91c.75-8.74,5.38-16.11,13.61-19.84l3.3,13.81c-9.79,5.53-11.78,17.67-5.15,26.03,6.7,8.44,19.72,8.49,26.62.26,6.9-8.23,4.93-20.97-4.89-26.27l3.3-13.7c8.13,3.57,12.77,10.79,13.62,19.34l.11,12.25c.01,1.28-.69,2.58-1.6,3.46l-11.23,10.82c-.99.96-1.51,3.05-1.94,4.57ZM33.64,58.16c.29,0,.96-1.11.72-1.25s-.92-.51-1.21-.5l-6.55.05c-.32,0-1.03,1.1-.76,1.25.21.11.92.47,1.17.47l6.62-.02ZM34.38,60.17l-8.43.04v1.76s8.44-.04,8.44-.04v-1.76Z"/>
      <path class="e" d="M36.72,15.55c-4.27-1.62-8.92-1.7-13.16.03l-3.36-13.69c6.25-2.52,13.38-2.51,19.88,0l-3.36,13.66Z"/>
      <path class="e" d="M30.93,45.15l-1.62.07-.09-4.16c-4.91-.57-8.11-3.95-8.72-8.67l-3.3-.03c-.31,0-.96-.57-.89-.86s.74-.79,1.04-.79l3.13-.08c.64-4.66,3.81-8.24,8.73-8.68l.08-3.98,1.6-.19.17,4.08c4.66.75,8.12,3.83,8.65,8.68l3.1.16c.34.02,1.11.45,1.12.78.01.41-.74.89-1.16.9l-3.08.11c-.52,4.8-4,7.95-8.65,8.73l-.12,3.93ZM37.96,32.42l-3.06-.17v-1.46s3.12-.21,3.12-.21c-.41-4.07-3.4-6.61-7.09-7.07l-.07,2.92-1.49.03-.19-2.96c-3.78.6-6.5,3.42-7.09,7.13l3.06.16v1.47s-2.97.14-2.97.14c.46,3.92,3.41,6.5,7.01,7.08l.29-3.07c1.03.25,1.37.33,1.38.66l.04,2.26c3.56,0,6.96-3.17,7.06-6.92Z"/>
      <path class="e" d="M39.27,65.48l3.22-12.37,1.35-3.34,10.1-9.73.02,9.87c0,1.92-.65,3.63-1.86,5.19-3.91,4.05-8.07,7.52-12.83,10.39ZM45.96,54.35l4.7-4.59c.31-.31.5-1.26.14-1.43-.28-.14-1.24,0-1.49.25l-5.01,4.94c-.28.28.11,1.36.46,1.33.28-.02.99-.3,1.2-.51ZM47.36,57.27l4.6-4.52c.3-.3.45-1.26.1-1.45-.28-.15-1.22,0-1.46.24l-4.93,4.98c-.22.23.33,1.43.61,1.3.19-.08.91-.4,1.08-.56Z"/>
      <path class="e" d="M20.9,65.16c-4.81-2.45-8.32-5.73-11.94-9.42-1.59-1.35-2.63-3.22-2.65-5.36l.02-10.36,8.26,8.03c1.39,1.41,2.46,3.05,3.12,4.92l3.2,12.19ZM15.59,53.08l-4.95-4.68c-.14-.14-.94-.23-1.14-.24s-.38.99-.24,1.13l5.35,5.33c.22.22,1.19.24,1.33-.03s-.06-1.22-.37-1.51ZM14.04,55.95l-4.6-4.44c-.3-.29-1.16-.39-1.41-.11-.18.21.03,1.14.26,1.36l4.81,4.61c.27.26,1.53.13,1.52-.17s-.19-.66-.58-1.24Z"/>
      <path class="e" d="M55.83,44.28c-.83-5.56,1.41-7.29,1.4-9.97l-.04-10.17c1.1.42,2.81,1.68,2.8,2.95l-.08,13.42c-.01,1.88-2.5,2.97-4.08,3.77Z"/>
      <path class="e" d="M4.23,38.63l.22,5.46c-1.44-.48-3.99-1.86-4.16-3.69-.41-4.5-.35-8.67-.1-13.23.06-1.14,1.67-2.39,2.83-2.89l.02,11.67,1.18,2.68Z"/>
    </g>
  </g>
</svg>