<?xml version="1.0" encoding="UTF-8"?>
<svg fill="#000000" id="b" data-name="Warstwa 2" xmlns="http://www.w3.org/2000/svg" viewBox="0 0 67.47 68.22">
  <defs>
    <style>
      .e {
        fill:#000000;
      }
    </style>
  </defs>
  <g id="c" data-name="Warstwa 1">
    <g id="d" data-name="Ikona_2">
      <path class="e" d="M15.84,31.91C8.85,29.8.6,25.12.03,17.99-.49,11.5,6.59,6.27,12.64,3.84c12.89-5.19,29.79-5.1,42.7.18,3.34,1.37,6.14,3.17,8.67,5.64,4.23,4.14,4.69,10.42.47,14.89-3.32,3.52-7.71,5.94-12.56,7.39-11.7,3.52-24.25,3.54-36.08-.03ZM49.68,28c4.08-1.31,7.9-3.06,10.9-6.06,3.32-3.32,3.34-8.26-.03-11.62-3.01-3.01-6.96-4.86-11.14-6.12C38.24.85,23.86,1.23,13.19,6.09c-2.87,1.31-5.44,3.11-7.27,5.61-2.13,2.9-2.04,6.53.24,9.29,8.4,10.14,31.12,11,43.52,7.01Z"/>
      <path class="e" d="M26.45,51.17l-4.68,9.42c-.76,1.52-2.71,1.88-4.16,1.38-1.4-.48-3-2.04-2.48-3.9.65-2.33,1.77-4.5,2.97-6.63l2.62-1.79c2.16-3.19.97-7.41-2.35-9.32-1.4-.81-2.92-1.38-4.46-1.98C7.21,35.77-.19,30.95,0,23.41c1.88,3.2,4.74,5.38,8.07,7.23,10.02,5.55,24.25,6.72,35.7,5.01.15,1.93-.14,3.99-1.41,5.51-5.18,1.28-10.47-.82-12.33,2.88l-3.58,7.13Z"/>
      <path class="e" d="M21.41,63.29c-.05,2.92-2.81,5.06-5.9,4.92-4.13-.18-8.11-1.93-11.29-4.5-5.56-4.49-1.8-12.3,3.31-17.39,2.1-2.09,3.53-4.47,2.93-7.57l6.43,2.78c2.5,1.08,4.03,4.7,2.29,6.91-.79.81-2.43,1.45-2.92,2.49l-2.54,5.32c-1.06,2.22-.5,4.65,1.12,6.17,1.72,1.62,4.02,1.98,6.58.87Z"/>
      <path class="e" d="M52.91,38.5c-2.45,1.48-5.42,1.9-8.17,2.48.67-1.98.96-3.5.76-5.45l9.38-2.6c.19,1.55-.14,4.46-1.97,5.57Z"/>
      <path class="e" d="M56.15,37.47l.51-5.34c4.25-1.99,8.42-4.58,10.8-8.73.19,3.34-1.31,5.99-3.39,8.47-2.22,2.24-4.86,3.95-7.92,5.6Z"/>
      <path class="e" d="M34.91,47.93c-.34,2.91-2.82,3.38-6.35,2.98,1.19-2.49,2.3-4.71,3.79-7,.84-.45,2.61-.56,3.66-.55-.54,1.72-.9,2.89-1.09,4.56Z"/>
      <path class="e" d="M17.99,25.33c-.36-.13-.99-.53-1.17-.69s.3-.87.51-.98c.66-.36,14.49,5.73,31.5.16,2.71-.89,5.12-2.36,7.06-4.17,2.43-2.26,2.37-5.5.22-7.92-1.76-1.98-4.05-3.06-6.69-4.41.58-.88,1.56-.74,2.52-.25,2.34,1.18,4.51,2.41,6.1,4.48,1.83,2.4,1.96,5.51.16,8.02-3.63,5.04-12.02,7.33-18.51,7.97-7.37.73-14.6.26-21.7-2.21Z"/>
      <path class="e" d="M41.8,14.48c.52,2.92-8.09,5.59-14.63,2.18-.63-.33-1.32-1.37-1.38-1.94-.32-2.81,8.22-5.58,14.78-2.05.56.3,1.14,1.29,1.23,1.81Z"/>
      <path class="e" d="M11.07,18.96c1.36,1.59,2.71,2.37,4.69,3.71l-1.54.93c-1.65-1.06-3.37-2.26-4.58-3.68-2.4-2.79-2.07-6.55.48-9.1C18.15,2.8,37.7,2.24,48.72,5.86c-1,1.36-2.02.7-3.13.42-8.68-2.2-17.81-2.03-26.29.8-3.03,1.01-5.73,2.54-7.87,4.69-2.03,2.03-2.3,4.93-.37,7.19Z"/>
      <path class="e" d="M44.3,21.3c.46.01,1.5.8,1.65,1.11-8.94,3.22-21.07,2.84-28.66-2.37-1.53-1.05-2.36-2.56-2.88-4.56l1.7-.13c.81,3,3.86,4.74,6.85,5.77,6.96,2.38,14.1,2.27,21.35.18Z"/>
      <path class="e" d="M42.41,18.37c3.12-1.1,2.94-3.94,5.08-2.86-.72,2.05-2.21,3.36-4.18,4.11-6,2.27-12.78,2.35-18.75,0-1.9-.75-3.65-2.09-4.27-4.02,1.83-1.33,1.89,2.03,6.33,3.24,5.25,1.44,10.69,1.31,15.8-.48Z"/>
      <path class="e" d="M51.76,14.39c-1.03-.33-.95-3.2-6.3-5.24-7.37-2.8-15.23-2.7-22.77-.25-.51.17-1.49-.26-1.68-.71,8.78-3.09,18.41-3.08,26.9.51,2.35,1,4.36,2.88,5.09,5.23-.06.19-.96.55-1.24.46Z"/>
      <path class="e" d="M46.01,14.3c-3.27-5.15-12.29-5.6-18.48-4.04-1.86.47-3.75,1.39-5.01,2.73l-.79,1.21c-.19.29-1.35-.06-1.58-.27.65-1.57,1.89-2.87,3.48-3.55,6.22-2.65,13.27-2.79,19.58-.34,3.37,1.31,4.51,4.02,4.08,4.08l-1.27.18Z"/>
      <path class="e" d="M53.19,15.51c-.65,3.53-4.77,7.04-5.99,4.68,2.04-1.27,3.6-2.45,4.2-4.88l1.79.19Z"/>
      <path class="e" d="M16.79,12.98c-.33.35-.46,1.33-.8,1.29l-1.53-.18c.75-2.77,3.61-5.23,5.15-4.11l-2.81,3.01Z"/>
    </g>
  </g>
</svg>