<?xml version="1.0" encoding="UTF-8"?>
<svg fill="#000000" id="b" data-name="Warstwa 2" xmlns="http://www.w3.org/2000/svg" viewBox="0 0 71.08 63.33">
  <defs>
    <style>
      .e {
        fill:#000000;
      }
    </style>
  </defs>
  <g id="c" data-name="Warstwa 1">
    <g id="d" data-name="Ikona_15">
      <path class="e" d="M44.29,62.22c-5.59,1.5-11.64,1.47-17.42-.02l.12-11c1.73-.2,3.29-.3,5.23-1.12-1.83-.71-3.46-.97-5.43-1.24-.82-5.37-1.53-9.5-6.12-12.9,2.84-.26,5.22-.09,7.88-1.31l-9.23-.96,2.15-.99-4.46-.93-2.61-6.85c-.33-.87-.24-2.03-.11-3.06l-2.81-.16v-1.8s3.49,0,3.49,0l.85-2.88c-4.05-.14-8.02-.06-11.87-1.19,6.35-1.44,12.36-1.21,18.45-1.12l-3.17.89c3.38.72,6.29.69,9.59.03l-.93-.59,8.5-1.44c-4.58-1.74-8.79-1.41-13.59-1.88l3.82-1.15c-2.76-1-4.85-1.09-7.79-1.35,1.77-3.77,4.91-6.44,8.83-7.83,7.17-2.55,16.77-1.77,22.27,4.49l-11.88,2.34c5.02,1.47,9.67,1.97,14.82,2.59l1.14,2.84c-3.53.18-6.59.28-10.09,1.68,3.8,1.49,7.38,1.37,11.16,1.62l1.08,3.71c-1.72.16-2.27.08-3.48,1.2l4.08,1.09c-.97,4.63-3.01,11.54-7,13.33-2.03.91-4.23-.22-6.41,1.26l4.6.73c-1.78,1.7-2.67,4.14-3.1,6.88-3.88.46-7.71.17-11.8,1.66,3.21,1.25,6.48,1.23,9.71,1.69l-2.95.92c.4.42,1.06.85,1.37.89l12.28,1.44c4.18.49,8.28-.25,12.6,1.52-2.88.76-5.82,1.08-8.79,1.28l-.32,2.18c-3.28,2.08-6.55,3.56-10.59,4.81l-.24-8.51-2.15-.06.34,9.29ZM46.01,28.84c2.64,0,4.09-2.76,3.97-4.79s-1.76-4.44-4.17-4.45l-19.95-.03c-2.73,0-4.75,1.96-4.84,4.54-.08,2.38,1.75,4.81,4.47,4.8l20.52-.07Z"/>
      <path class="e" d="M15.09,48.68l.08-2.57,2.7-.7c-1.22-.67-2.66-1.1-3.11-1.88-1.45-2.5-2.15-4.82-3.05-7.82l5.61.15c5.05,3.62,6.74,6.57,7.27,12.79l-9.49.02Z"/>
      <path class="e" d="M24.8,61.34c-4.09-1.05-7.4-2.6-11.01-4.95l.61-5.04,10.46-.03-.06,10.01Z"/>
      <path class="e" d="M52.08,41.09c1.72.62,3.29.83,5.1,1.01l-1.32,3.28-8.92-.21c.52-2.56,1.55-5.53,3.88-6.76l9.26.13c2.25.03,4.23.16,6.25.78-4.87,1.85-9.93.31-14.25,1.76Z"/>
      <path class="e" d="M60.95,14.51c-.57-1.66-.68-3.73-1.97-4.94-1.16-1.09-3.17-1.25-4.66-1.71,1.57-.65,3.58-.75,4.7-1.87,1.23-1.23,1.35-3.3,1.94-5.1.52,1.51.68,3.63,1.78,4.96,1.04,1.25,3.15,1.19,4.74,1.94-1.42.59-3.26.74-4.35,1.61-1.42,1.14-1.55,3.41-2.17,5.12Z"/>
      <path class="e" d="M59.36,35.59l-5.73.41c1.29-1.78,2.29-3.35,3.02-5.28l1.71-4.53c2.35,3.53,2.08,5.03,1,9.4Z"/>
      <path class="e" d="M5.62,52.32c-1.04-3.75-.98-4.35-5.18-5.47,1.04-.35,2.67-.57,3.61-1.38.88-.76.99-2.46,1.48-3.7.45,1.08.68,2.44,1.28,3.31.81,1.17,2.92,1.41,4.14,1.76-1.26.46-2.79.75-3.76,1.5-1,.78-1.14,2.69-1.57,3.99Z"/>
      <path class="e" d="M71.08,34.82c-2.9,1.48-5.78.88-8.91.77l-.1-1.69c2.94-.1,5.78-.24,9,.92Z"/>
      <path class="e" d="M14.73,31.65l-3.85.26c-.06-1.14.07-2.57.57-3.5l1.2-2.22,2.08,5.46Z"/>
      <path class="e" d="M8.68,21.76c-2.91.04-5.61.03-8.68-.97,2.93-.82,5.67-.92,8.65-.98l.03,1.94Z"/>
      <rect class="e" x="8.28" y="8.58" width="5.59" height="2.08" transform="translate(-.08 .09) rotate(-.45)"/>
      <rect class="e" x="58.55" y="22.73" width="4.26" height="1.98" transform="translate(-.06 .16) rotate(-.15)"/>
      <path class="e" d="M52.14,49.04c-.55.11-1.88-.71-2.26-1.04l5.08-.8.91-.07c.19-.01.26.72.27,1.09l-4,.82Z"/>
    </g>
  </g>
</svg>