<?xml version="1.0" encoding="UTF-8"?>
<svg fill="#000000" id="b" data-name="Warstwa 2" xmlns="http://www.w3.org/2000/svg" viewBox="0 0 48.22 70.6">
  <defs>
    <style>
      .e {
        fill:#000000;
      }
    </style>
  </defs>
  <g id="c" data-name="Warstwa 1">
    <g id="d" data-name="Ikona_3">
      <path class="e" d="M26.3,64.15c-.93-4.43,1.43-8.76,5.46-10.84,4.53-2.34,8.99-1.25,12.97-4.54,0,4.42-1.76,8.94-5.04,12.13-3.47,3.37-8.35,4.48-13.39,3.25Z"/>
      <path class="e" d="M36.75,19.45c0,4.52-3.66,8.18-8.18,8.18s-8.18-3.66-8.18-8.18,3.66-8.18,8.18-8.18,8.18,3.66,8.18,8.18ZM32.05,21.24c1.4-.55,1.94-2.21,1.6-3.51-.25-.96-1.07-2.13-2.02-2.79-1.44-.99-3.23-1.06-4.42.06-1.11,1.05-1.27,2.87-.31,4.28,1.09,1.59,2.99,2.81,5.15,1.97Z"/>
      <path class="e" d="M18.7,18.11c-2.84-.69-5.6-.08-7.65,2.14-2.36-.73-4.32-2.76-5.03-4.72-1.01-2.8-.41-5.56,1.24-7.75,2.86-3.79,8.11-4.87,11.9-1.84,1.65,1.32,2.73,3.94,2.67,5.92-1.51,1.85-2.69,3.55-3.14,6.25ZM14.88,9.25c.26-.57.16-1.81-.23-2.2-1.54-1.55-4.91-.16-6.34,2.92-.21.46,0,1.63.33,1.96,1.33,1.34,4.85.32,6.24-2.68Z"/>
      <path class="e" d="M26.86,70.34c-2.28.31-3.98.37-6.15.03-3.34-8.25-3.54-17.31-1.02-25.88,1.44-.77,2.59-1.57,3.91-2.67l.89,2.44c-2.3,7.13-2.09,14.51.58,21.45l1.78,4.63Z"/>
      <path class="e" d="M8.68,51.62c5.04,1.04,8.21,5.45,7.57,10.42-4.76,1.03-9.66-.35-12.55-4.18-2.03-2.69-3.14-5.97-3.23-9.32,1.22.95,2.5,1.9,3.86,2.18l4.35.9Z"/>
      <path class="e" d="M23.47,37.39c-.69,3.55-3.66,5.94-7.27,5.79-3.4-.14-6.57-2.18-7.84-5.29-1.2-2.95-.52-6.22,1.99-8.34,2.34,3.04,6.23,4.53,9.86,2.42.42,2.27,1.17,4.07,3.25,5.42ZM15.65,41.01c1.25-.12,1.65-1.44,1.17-2.41-1.32-2.71-5.02-4-6.04-2.44-.19.28-.27,1.18-.17,1.51.66,2.06,2.67,3.57,5.04,3.34Z"/>
      <path class="e" d="M34.51,11.48c-3.23-2.39-7.29-2.61-10.74-.8-.61-1.76-1.22-3.27-2.13-4.86.06-2.43,1.97-4.63,4.37-5.39,2.65-.84,5.33-.43,7.65.98,2.71,1.65,4.24,4.72,3.34,7.81l-2.49,2.24ZM33.05,5.47c.57-.64.68-1.57.15-2.11-2.21-2.28-6.12-2.02-6.49-.32-.32,1.51,3.06,3.49,6.34,2.42Z"/>
      <path class="e" d="M43.93,25.3c-1.69-1.8-3.53-2.41-5.98-2.25,1.15-3.66.55-7.41-2.05-10.32,2.02-2.68,5.45-3.26,8.4-1.49,3.61,2.16,5.01,6.98,2.99,10.84-.68,1.31-2.05,2.33-3.36,3.22ZM44.59,13.77c-.28-.25-1.29-.42-1.61-.26-1.51.8-1.33,4.31.67,6.21.29.27,1.18.54,1.55.43,1.64-.49,1.84-4.17-.61-6.38Z"/>
      <path class="e" d="M33.54,33.84l-.51-5.12,4.03-3.5c3.06-1.48,6.19.77,7.25,3.51s-.06,6.1-2.94,7.6c-2.53,1.32-6.47.82-7.83-2.49ZM42.98,31.5c.12-1.08-.49-2.41-1.43-2.44-1.4-.04-2.33,1.15-2.78,2.22-.41,1-.43,2.67.81,3.17,1.7.68,3.19-1.12,3.39-2.95Z"/>
      <path class="e" d="M9.4,27.78l-2.58,3.45c-3.38.65-6.07-1.96-6.7-5.24-.68-3.58,1.54-7.43,5.34-7.55l4.33,3.41c-.69,1.72-.92,3.76-.39,5.94ZM3.89,22.68c-.15-.26-.79-.67-1.05-.62-1.4.26-1.86,3.29-.67,5.09.15.22.75.58,1.01.64.95.24,2.13-2.65.71-5.11Z"/>
      <path class="e" d="M18.5,19.78c.37,2.84,1.51,5.23,3.48,7.38-.51,1.86-2.07,3.42-3.97,3.84-2.57.58-4.92-.53-6.23-2.54-1.28-1.95-1.29-4.69.14-6.55,1.48-1.92,3.81-2.95,6.57-2.14ZM15.74,28.34c.8-.31,1.07-2.17.8-3.08-.22-.75-1.15-1.92-2.07-2.01-1.64-.17-2.11,1.45-1.88,2.75.25,1.41,1.14,3.11,3.15,2.34Z"/>
      <path class="e" d="M33.14,45.61c-2.45.63-4.54.05-6.09-1.34-1.7-1.53-2.31-3.83-1.59-6.11,2.71.67,5.13-.27,6.83-2.34,1.55,1.53,3.45,2.47,5.28,3.08.78,2.99-1.45,5.95-4.44,6.71ZM34.94,42.13c-.48-1.65-2.73-1.04-3.82-.55-.94.43-1.94,1.54-.98,2.38,1.4,1.22,4.74.03,4.8-1.82Z"/>
      <path class="e" d="M30.87,29.32c1.75,1.7.89,5.34-1.22,6.62-2.24,1.36-4.95.92-6.64-1.39-1.4-1.92-1.29-5.2.96-6.22,2.01.78,4.36,1.34,6.9.99ZM28.92,34.02c.27-1.36-1.07-2.08-1.91-2.21s-2.17.4-2.26,1.29c-.12,1.22.88,1.85,1.81,2.07.7.16,2.17-.2,2.36-1.15Z"/>
    </g>
  </g>
</svg>