<?xml version="1.0" encoding="UTF-8"?>
<svg fill="#000000" id="b" data-name="Warstwa 2" xmlns="http://www.w3.org/2000/svg" viewBox="0 0 62.74 71.85">
  <defs>
    <style>
      .e {
        fill:#000000;
      }
    </style>
  </defs>
  <g id="c" data-name="Warstwa 1">
    <g id="d" data-name="Ikona_8">
      <path class="e" d="M25.93,37.53l-14.27.02,14.24-20.31c.36-.52.7-.93,1.03-1.14s1.53.09,1.61.38v3.71s4.13.06,4.13.06l.06-4.42-3.95-.03c-.06-.56-.22-2.24.16-2.79l3.14-4.59,2.5-.07-.03,4.31,4.28-.04v-4.26s-4.05-.1-4.05-.1c-.08-.87-.37-2.95.19-3.79l2.95-4.47,24.81.03-14.6,15.79-4.4.05-.16,4.59-7.73,8.53,17.08.05-17.38,14.17-.31-1.89h-2.76s.04,3.58.04,3.58c0,.58-.86,1.43-1.32,1.48l-.03-1.91-3.85.1-.05,5.46L0,71.85l25.93-34.32Z"/>
      <path class="e" d="M8.9,50.55c.11.62.82,2.19.57,2.81-.45,1.12-2.02,2.39-3.04,2.95l2.13-3.27-.73-2.97,2.58-3.55-6.84-4.24.41-6.09-3.57-3.63,3.78-8.5,7.43-1.23c1.02-.17,2.46-1.19,3.64-1.73l.12-3.56h-6.23s-.03-5.33-.03-5.33l3.83-.03.07,2.91h4.51s.01,5.38.01,5.38l3.15.19-2.26,3.06c-2.05-.25-3.45.41-5.28,1.16-2.09.85-4.41.99-6.91,1.31l-3.1,6.01,3.19,4-1.03,5.27,6.85,4.9-3.24,4.2Z"/>
      <path class="e" d="M25.77,58.84c-1.86-1.12-1.38,1.78-4.73,2.51l-4.28.92c.88-1.14,2.17-1.77,3.91-1.67,2.09.12,2.03-1.93,3.23-2.84,1.36-1.03,3.77,1.21,4.55.91l3.04-1.17,1.68-5.44,4.23-.34,5.17,3.22,6.79-3.88-.11-12.01-4.42-.36,3.99-3.31,3.52,1.36-.21,9.27h4.82s.02,2.89.02,2.89l-4.96.05-.06,4.02-9.47,4.49-4.3-3.1c-.76-.54-1.81-.94-2.92-1.01l-2.35,5.34-4.77,1.58-2.37-1.43Z"/>
      <path class="e" d="M43.74,24.12l2.66-3.27c.79-.3,2.55-.4,3.4-.31l1.24,1.26,4.26-.93.31-3.9,6.14-3.4c-2,2.95-5.42,2.84-4.99,5.15.25,1.36-.17,3.39-1.66,3.79l-5.06,1.35c-.68-1.51-1.79-1.76-3-1.22l-3.3,1.48Z"/>
      <path class="e" d="M24.12,9.29l-2.93,2.6c-1.42.07-2.97-.22-4.73-.93l4.14-.45,3.81-4.12,5.24,1.38-1.64,2.5-3.89-.97Z"/>
      <rect class="e" x="57.19" y="34.2" width="4.33" height="4.47"/>
      <rect class="e" x="13.04" y="4.54" width="3.5" height="3.48" transform="translate(-.05 .11) rotate(-.44)"/>
      <rect class="e" x="39.71" y="60.57" width="3.02" height="2.98" transform="translate(-.1 .06) rotate(-.09)"/>
    </g>
  </g>
</svg>