<?xml version="1.0" encoding="UTF-8"?>
<svg fill="#000000" id="b" data-name="Warstwa 2" xmlns="http://www.w3.org/2000/svg" viewBox="0 0 68.1 63.59">
  <defs>
    <style>
      .e {
        fill:#000000;
      }
    </style>
  </defs>
  <g id="c" data-name="Warstwa 1">
    <g id="d" data-name="Ikona_10">
      <path class="e" d="M34.15,57.41c-7.87,8.35-21.24,8.27-28.65-.47,5.54,4.44,12.41,5.3,18.23,1.27,5.93-4.11,7.96-11.85,4.77-18.56l2.54-1.45c1.92,1.96,4.3,1.8,6.2.01l2.46,1.56c-3.21,6.4-1.18,13.89,4.18,18.01,5.64,4.34,12.96,3.76,18.74-.81-7.22,8.44-20.42,9.05-28.47.44Z"/>
      <path class="e" d="M30.04,36.3c-.43.72-1.73,1.4-2.65,1.64-5.16-7.74-16.01-8.6-22.31-2.38-3.56,3.51-4.65,8.18-4.13,13.51-3.45-10.54,2.81-22.04,14.01-24.76C11.78,13.46,18.52,1.86,29.94,0c-8.32,2.95-12.47,10.85-9.53,18.92,2.02,5.41,6.67,9.18,12.67,9.54l-.02,3.13c-2.4.55-3.31,2.3-3.02,4.71Z"/>
      <path class="e" d="M38.12,36.76c.5-2.43-.38-4.61-3.02-5.22l-.07-3.08c6.63-.37,11.82-4.89,13.24-11.2C50.09,9.61,46.04,2.91,38.49.01c11.07,2.1,17.98,13.3,14.74,24.34,10.97,2.42,17.49,14.04,13.85,24.72,1.09-7.21-2.07-13.74-8.4-16.46-6.47-2.78-13.9-.55-17.91,5.42l-2.66-1.26Z"/>
      <path class="e" d="M42.67,23.45c-5.34-3.9-11.93-3.84-17.14-.05l-2.56-3.21c6.53-5.19,15.55-5.17,22.28-.08l-2.58,3.34Z"/>
      <path class="e" d="M41.69,52.26c-.78-1.49-1.16-2.64-1.35-3.9,5.73-2.63,8.72-8.05,8.3-14.32l4.22-.69c.77,8.16-3.47,15.53-11.17,18.91Z"/>
      <path class="e" d="M27.76,48.2c.07,1.4-.37,2.71-1.23,4.09-7.46-3.38-12.08-10.66-11.22-18.98l4.13.51c-.28,6.15,2.28,11.67,8.32,14.38Z"/>
    </g>
  </g>
</svg>