<?xml version="1.0" encoding="UTF-8"?>
<svg fill="#000000" id="b" data-name="Warstwa 2" xmlns="http://www.w3.org/2000/svg" viewBox="0 0 70.48 70.81">
  <defs>
    <style>
      .e {
        fill:#000000;
      }
    </style>
  </defs>
  <g id="c" data-name="Warstwa 1">
    <g id="d" data-name="Ikona_10">
      <path class="e" d="M34.61,47.48l-.26,2.79c-.58-.16-1.79-.63-2.31-.93.16-1.28.09-2.16-1.12-2.48l-.22,2.31-1.86-.9c-.81-.39-.09-3.07-.99-4.27-.3-.4-1.32-.59-1.91-.66l-1.69-.19-2.6-4.31c1.28-1.73,1.39-3.76.95-5.81-1.12-5.15,1.11-9.72,5.45-12.26,4.54-2.65,9.5-2.74,14.06-.17,4.54,2.56,6.73,7.16,5.7,12.49-.39,2.02-.29,4.03.97,5.85l-2.64,4.25-3.47.47c-.34,1-.58,2.37-.62,3.54-.04,1.26-1.51,2.04-2.37,1.59l.03-1.4c0-.23-.55-.4-.77-.32-1.1.4-.18,2.54-.96,2.71l-1.9.4-.16-2.67h-1.31ZM32.68,37.98c.37-.42.67-1.85.4-2.28-.77-1.21-3.59-2.69-5.3-2.45-1.83.26-2.6,1.9-2.67,3.4-.05,1.26.91,2.87,2.36,3.21,1.9.44,3.81-.28,5.22-1.87ZM40.96,39.8c2.08.63,3.71-.57,4.17-2.22s-.23-3.88-2.14-4.23c-2.32-.42-4.92.84-5.92,2.86.23,2.01,1.86,3.28,3.89,3.58ZM37.18,43.65c.44-.85-.69-3.23-2.05-4.98l-1.99,3.62c-.16.28.03,1.31.32,1.45s.8-.11,1.29-.37c1.07-.57,2,1.12,2.44.28Z"/>
      <path class="e" d="M35.08,3.91c-2.63,1.11-4.58,3.42-7.07,4.14-2.66.76-5.34.32-8.18.54-1.4,3.02-3.99,5.67-4.98,8.76-1.17,3.65-.67,7.46-1.59,11.47l-5.48-8.83,3.5,2.54.22-7.85,6.2-10.17,10.59-.3,6.73-4.22c2.49,1,4.54,3.18,7.23,4.01,3.21.99,6.96-.06,10.38.6,2.19,2.79,3.4,6.38,5.83,8.9,2.01,2.09,4.99,2.8,7.16,4.75l-9.29-1.6c-.87-.15-1.85-1.8-2.32-2.54l-3.5-5.56c-2.74-.19-5.51.28-8.09-.54-2.56-.81-4.76-2.96-7.34-4.11Z"/>
      <path class="e" d="M42.85,67.21l-7.62,3.6,6.48-7.61,8.91-.13,4.53-7.08,7.55-4.17c-.05-2.81-.84-5.54-.34-8.22.51-2.73,2.33-4.96,3.59-7.54l-4.26-8.65-9.01-7.65,10.44.36-4.29,1.35,6.08,4.14,5.54,10.24-4.98,9.22.41,8.64c-2.51,1.61-5.38,2.4-7.29,4.37-2.49,2.56-3.66,5.94-5.8,9.03l-9.97.1Z"/>
      <path class="e" d="M34.49,68.06l.93-4.36-7.1,3.4-10.63.09-5.45-8.95-7.76-4.65.49-8.27L0,35.86l4.73-8.86-.05-7.84c1.54,2.83,2.8,5.82,3.79,8.96l-3.99,7.9c1.22,2.6,3.13,4.96,3.62,7.71.46,2.58-.32,5.38-.3,8.06,2.14,1.67,5.13,2.35,7.19,4.17,2.17,1.92,3.02,4.93,4.96,7.14,2.9-.17,6.21.53,9.01-.16,3.92-.96,7.36-2.71,11.29-3.98l-5.75,9.1Z"/>
      <path class="e" d="M48.69,58.77l-4.92-8.48c.5-1.44.76-2.75.95-4.46,1.6.5,2.84-.18,3.69-1.5l3.25-5.08-1.2-3,11-.03-2.04,7.55c-.52,1.92.37,4.53.17,6.53l-5.79,3.28-5.1,5.2Z"/>
      <path class="e" d="M26.6,50.28l-4.7,8.38c-2.08-1.54-3.18-3.19-4.9-4.77s-4.26-2.43-6.17-3.79c-.28-2.17.76-4.75.18-6.63l-2.21-7.21,11.23-.04-1.29,3.02,4.32,6.53,2.61.17.94,4.34Z"/>
      <path class="e" d="M44.06,18.78c-5.52-3.38-11.89-3.57-17.65.07l-3.72-6.55c2.28-.62,4.68-.94,6.93-1.84,1.98-.79,3.76-2.23,5.67-3.26,1.96,1.17,3.81,2.89,6.02,3.45l6.52,1.64-3.76,6.49Z"/>
    </g>
  </g>
</svg>