<?xml version="1.0" encoding="UTF-8"?>
<svg fill="#FFFFFF" id="b" data-name="Warstwa 2" xmlns="http://www.w3.org/2000/svg" viewBox="0 0 68.33 68.75">
  <defs>
    <style>
      .e {
        fill:#FFFFFF;
      }
    </style>
  </defs>
  <g id="c" data-name="Warstwa 1">
    <g id="d" data-name="Ikona_9">
      <path class="e" d="M50.82,65.18c.88.95.58,2.44-.17,3.09-3.35,2.89-10.31-8.07-8.02-17.81l2.46-10.44c2.5-10.64-2.25-15.59-2.84-24.61-.37-5.54,1.3-10.74,5.17-14.56.86-.85,2.13-1.01,3.04-.45.87.54,1.38,2.34.51,3.21-6.56,6.54-4.45,13.91-2.05,22.12,1.45,4.98,1.69,9.81.5,14.85l-2.46,10.44c-1.21,5.13.24,10.28,3.87,14.17Z"/>
      <path class="e" d="M24.24,42.85l-4.76-.69c-1.86-5.46-1.57-11.07.04-16.65,2.27-7.9,4.26-15.47-1.99-21.73-.81-.81-.73-2.23-.1-3.01.78-.95,2.24-1.06,3.25-.1,4.1,3.91,5.92,9.36,5.39,15.11-.9,9.68-6.11,16.5-1.82,27.07Z"/>
      <path class="e" d="M41.17,49.4c-5.15,1.43-10.2.94-15.37-.15-7.81-1.64-16.25-2.92-21.45,3.46-.85,1.05-2.23,1.46-3.25.81-1.2-.77-1.37-2.32-.45-3.43,6.71-8.1,16.04-7.18,25.7-5.18,5.42,1.12,10.37,1.4,15.89-.47l-1.07,4.96Z"/>
      <path class="e" d="M19.13,20.71l-1.12,4.28c-6.47.86-13-1.25-17.31-6.26-.94-1.09-.93-2.44.08-3.35,1.12-1.01,2.44-.66,3.43.57,2.06,2.56,4.86,3.91,8.03,4.64l6.9.12Z"/>
      <path class="e" d="M67.67,53.27c-2.95,2.39-3.53-2.36-8.75-4.37-3.08-1.18-6.1-1.17-9.68-.86l1.09-4.38c6.6-.89,13.04,1.24,17.34,6.38.87,1.04.85,2.52-.02,3.22Z"/>
      <path class="e" d="M50.57,25.06l-1.53-4.44,6.97-.12c3.72-.52,6.51-2.53,8.85-5.33.71-.84,2.32-.36,2.88.32.78.96.75,2.23-.12,3.24-4.2,4.91-10.22,6.9-17.05,6.32Z"/>
      <path class="e" d="M25.85,50.89c2.13,8.09-4.62,20.5-8.2,17.36-.71-.62-1.04-2.13-.28-2.92,4-4.14,5.26-9.54,3.83-15.37l4.65.93Z"/>
      <path class="e" d="M42.19,24c-5.14-1.68-10.21-1.85-15.95-.13l.97-4.74c4.69-1.1,9.14-1.27,13.84,0l1.13,4.87Z"/>
      <rect class="e" x="22.98" y="33.07" width="21.48" height="2.19" transform="translate(-14.28 33.94) rotate(-45.11)"/>
      <path class="e" d="M34.6,43.76c-.52.52-2.29.4-3.18.08l12.52-12.53.28,2.8-9.62,9.65Z"/>
      <path class="e" d="M24.62,35.76c-.35-.85-.36-1.99-.19-2.96l8.5-8.43,2.91.16-11.22,11.23Z"/>
      <path class="e" d="M51.33,62.71c-.54-.53-.96-1.21-1.16-1.82l10-9.32,1.65,1.43-10.49,9.71Z"/>
      <path class="e" d="M8.19,16.86c-.66-.23-1.41-.8-1.81-1.27l10.07-9.34c.47-.43,1.93.91,1.59,1.36l-9.85,9.25Z"/>
      <polygon class="e" points="17.05 62.75 6.52 53.03 8.08 51.61 18.32 61.06 17.05 62.75"/>
      <path class="e" d="M60.26,17l-9.93-9.22c-.4-.37.78-1.89,1.32-1.67l10.26,9.58-1.65,1.32Z"/>
      <path class="e" d="M14.95,18.6c-.51.5-2.18.32-3.01-.03l7.62-7.39c.33.65.65,2.32.17,2.79l-4.78,4.63Z"/>
      <path class="e" d="M48.7,57.31c-.22-.46-.57-2.11-.15-2.54l3.83-3.93c1.2-1.23,2.7-1.62,3.92-.63l-7.61,7.1Z"/>
      <path class="e" d="M53.7,18.71l-4.99-4.63c-.48-.44-.33-1.8.11-2.77l7.65,7.18c-.55.44-2.26.69-2.76.22Z"/>
      <path class="e" d="M19.55,54.48c.53.51.47,2.05.05,2.86l-7.53-7.15c.58-.47,2.31-.72,2.9-.15l4.58,4.45Z"/>
    </g>
  </g>
</svg>