<?xml version="1.0" encoding="UTF-8"?>
<svg fill="#FFFFFF" id="b" data-name="Warstwa 2" xmlns="http://www.w3.org/2000/svg" viewBox="0 0 61.16 61.64">
  <defs>
    <style>
      .e {
        fill:#FFFFFF;
      }
    </style>
  </defs>
  <g id="c" data-name="Warstwa 1">
    <g id="d" data-name="Ikona_7">
      <path class="e" d="M38.58,61.62h-15.91s.01-4.17.01-4.17l-4.32-.08-.03-14.46-13.91.02-.07-4.11-4.35-.05v-16.03s4.34,0,4.34,0l.02-4.05h13.98s0-14.49,0-14.49l4.3-.04L22.67,0h15.87s.01,4.17.01,4.17l4.27.05v14.46s13.98,0,13.98,0l.03,4.06h4.31s0,16.02,0,16.02l-4.29.05-.04,4.09-13.98.02-.03,14.46-4.22.05v4.18ZM36.37,47.56v-10.97s11.11-.08,11.11-.08v-11.32s-11.13-.06-11.13-.06v-11.23s-11.58.03-11.58.03l-.02,11.24-11.07.02v11.32s11.06.05,11.06.05l.03,11.09,11.6-.08Z"/>
    </g>
  </g>
</svg>