<?xml version="1.0" encoding="UTF-8"?>
<svg fill="#FFFFFF" id="b" data-name="Warstwa 2" xmlns="http://www.w3.org/2000/svg" viewBox="0 0 62.5 69.04">
  <defs>
    <style>
      .e {
        fill:#FFFFFF;
      }
    </style>
  </defs>
  <g id="c" data-name="Warstwa 1">
    <g id="d" data-name="Ikona_1">
      <path class="e" d="M42.25,63.68c-.38,2.13-2.09,3.5-3.91,4.14-7.63,2.68-18.73,1.03-18.12-6.08.15-1.73.59-3.5,1.24-5.13,1.67-4.19,2.63-8.53,2.58-13.08.33-.31,1.31-.68,1.63-.57.66.93,1.92,2.08,2.95,2.06l4.49-.08c1.24-.02,2.63-.96,3.36-2.02.42-.29,1.61.12,1.96.61.11,4.81,1.14,9.37,2.96,13.79.8,1.93,1.27,4.11.87,6.36Z"/>
      <path class="e" d="M12.94,30.14c-1.58-.65-1.47-3.12-1.14-4.35s1.45-2.67,3.05-3.04c.6-.14,1.86.54,2.5.73,10.31,2.98,21.95,2.74,31.92-1.58,1.4-.33,3,1.53,3.42,2.62.54,1.38.59,4.01-1,4.79-10.57,5.21-27.56,5.4-38.75.83Z"/>
      <path class="e" d="M24.68,22.38c-.69-.33-1.01-1.92-.93-2.55.08-.7.92-2.13,1.73-2.16,5.7.67,11.05.54,16.35-1.41,2.59-.95,4.56-2.41,5.99-4.93.86-.42,2.37-.08,3.13.52.8.63,1.81,2.11,1.16,3.22-4.17,7.12-18.68,8.9-27.42,7.31Z"/>
      <path class="e" d="M36.62,7.02c-5.52-2.5-12.36-.4-12.18,2.04.04.53.82,1.37,1.39,1.65,5.19,2.58,9.22-.31,11.15,1.53.5.48.68,1.61.35,2.49-6.1,2.23-18.24.08-17.52-5.15.89-6.53,20.31-7.53,22.96-.5.79,2.08-1.26,3.85-2.81,4.54-.53-1.54-1.26-2.49-2.31-3.36.13-.47.4-1.39.39-1.8-.01-.49-.86-1.19-1.4-1.44Z"/>
      <path class="e" d="M12.34,21.51c-2.62,1.32-3.86,4.01-3.19,7.08-3.34-1.74-6.09-4.04-7.88-7.24C-2.97,13.78,4.12,6.38,11.99,3.45c-1.6,1.42-3.22,2.6-4.44,4.19-2.3,3-2.23,6.64-.12,9.69,1.42,1.49,2.87,2.65,4.91,4.17Z"/>
      <path class="e" d="M33.99,42.53c-1.64.85-3.91.66-5.71.39l-2.25-2.85c-1.87,1.16-4.14,2.32-5.26,1.17-.19-.2-.21-.83-.09-1.12l2.04-5.16c5.7.82,11.57.73,17.18.03.67,2.04,1.35,3.71,2.21,5.51-.02.9-1.82,1.54-2.89,1.11-1.55-.62-2.66-1.75-3.92-3.15-.19,1.01.02,3.36-1.31,4.05Z"/>
      <path class="e" d="M55.66,27.32c.23-3.44-1.08-5.67-3.81-7.16,3.34-1.97,5.35-5.15,4.82-8.79-.49-3.41-2.94-5.38-5.55-7.59,3.91,1.16,7.11,3.75,9.37,6.87,2.73,3.77,2.63,8.41.03,12.12-1.34,1.72-2.75,3.07-4.86,4.55Z"/>
      <path class="e" d="M43.55,4.51c-7.33-3.53-15.86-3.53-23.25-.59-2.32.92-4.13,2.33-5.22,4.51-1.96-.86-3.66-.27-5.3,1.13.45-1.29,1.16-2.26,2.07-3.32,2.76-2.28,5.8-4,9.36-4.93,9.31-2.44,20.69-1.68,28.53,4.03,1.73,1.56,3.22,3.27,3.28,5.87-1.49-1.43-3.11-2.16-5.15-2.17-.91-1.8-2.2-3.5-4.31-4.52Z"/>
      <path class="e" d="M22.77,16.91c-1.03,1.65-1.44,3.04-1.21,4.88-4.54-1.08-11.88-4.93-11.77-8.61.07-2.38,2.9-3.67,4.82-2.8l1.37,2.71c1.71,1.91,4.07,3.04,6.79,3.82Z"/>
    </g>
  </g>
</svg>