<?xml version="1.0" encoding="UTF-8"?>
<svg fill="#FFFFFF" id="b" data-name="Warstwa 2" xmlns="http://www.w3.org/2000/svg" viewBox="0 0 75.22 63.6">
  <defs>
    <style>
      .e {
        fill:#FFFFFF;
      }
    </style>
  </defs>
  <g id="c" data-name="Warstwa 1">
    <g id="d" data-name="Ikona_5">
      <path class="e" d="M49.71,57.52h-24.31c-1.97-.01-2.68-1.42-2.68-3.11v-22.84c0-1.33.12-3.62,2.05-3.62l25.13-.03c1.73,0,2.73,1.41,2.73,2.93l-.03,24.21c0,1.63-1.44,2.45-2.89,2.45ZM48.23,54.84c.75,0,1.47-.68,1.67-1.41v-21.12c0-.98-.83-1.72-1.76-1.72l-21.19.03c-.88,0-1.67.8-1.67,1.69l.03,20.93c.26.95.98,1.56,1.92,1.56l20.99.04Z"/>
      <path class="e" d="M58.44,36.59c1.27-1.3,2.01-2,2.05-3.28.05-1.3-.74-2.17-2.15-3.12l6.24-3.51c3.99-2.25,7.62-4.8,10.6-7.91.41,5.37-2.15,9.75-6.12,12.84-2.5,1.94-5.31,3.19-8.2,4.72-.69.37-1.8.47-2.41.26Z"/>
      <path class="e" d="M17.09,36.41c-.71.48-1.73.33-2.75-.21C6.31,31.94.01,29.08,0,18.73c5.03,5.16,11.08,8.22,17.05,11.47-1.27.66-2.22,1.66-2.23,2.7,0,1.51.46,2.33,2.26,3.5Z"/>
      <polygon class="e" points="40.47 17.97 34.78 17.95 34.83 9.65 31.17 9.47 37.65 0 44.03 9.52 40.52 9.6 40.47 17.97"/>
      <path class="e" d="M12.98,37.49c3.21,1.01.33,2.8,4.06,5.53-3.3-.02-6.85-1.07-10.03-2.58-3.22-1.53-5.2-4.68-5.99-8.06,3.86,2.23,7.75,3.8,11.96,5.12Z"/>
      <path class="e" d="M58.44,43.05c1.21-1.55,2.76-2.36,2.11-4.8l5.85-2.15c2.68-.98,5.13-2.23,7.73-3.67-.41,2.9-1.98,5.29-4.35,7.12-3.37,1.83-6.95,3.55-11.34,3.5Z"/>
      <polygon class="e" points="49.86 21.19 47.07 19.56 46.93 16.34 44.37 16.05 49.05 9.09 53.92 16.31 51.2 16.16 51.31 20.67 49.86 21.19"/>
      <polygon class="e" points="28.37 19.74 24.16 20.82 24.01 16.15 21.38 16.24 26.16 9.09 30.92 16.18 28.21 16.2 28.37 19.74"/>
      <path class="e" d="M59.25,48.68c.85-1.32,1.34-2.42,1.61-3.61l7.98-1.21c-1.87,3.35-5.87,4.85-9.59,4.82Z"/>
      <path class="e" d="M14.77,44.98c.07,1.27.26,2.57,1.46,3.67-3.67.05-7.74-1.39-9.75-4.82l8.29,1.16Z"/>
      <path class="e" d="M29.51,62.35c0,.44-.89,1.2-1.32,1.25-.5.06-1.51-.78-1.53-1.34l-.1-3.29,3.02.1-.07,3.27Z"/>
      <path class="e" d="M29.66,26.26l-3.15-.02.11-2.99c.02-.55.81-1.42,1.3-1.48.56-.07,1.64.77,1.66,1.38l.09,3.1Z"/>
      <path class="e" d="M42.25,62.37c-.02.52-1.06,1.27-1.49,1.22s-1.24-.8-1.26-1.27l-.12-3.31,2.98.08-.1,3.28Z"/>
      <path class="e" d="M35.88,62.23c0,.59-1.08,1.39-1.58,1.34s-1.27-.98-1.28-1.54l-.03-3.05,2.91.11-.03,3.13Z"/>
      <path class="e" d="M21.05,40.99l-3.45-.1c-.39-.01-.92-1.06-.88-1.47s.68-1.29,1.08-1.31l3.27-.11-.02,2.99Z"/>
      <path class="e" d="M36.03,26.2h-3.11s.46-3.96.46-3.96c.04-.37,1.22-.62,1.51-.42s.95.83.97,1.19l.17,3.19Z"/>
      <path class="e" d="M57.36,34.68l-3.08-.03-.08-2.94,3.48.19c.4.02,1.03,1.01,1.04,1.42,0,.48-.88,1.35-1.37,1.35Z"/>
      <path class="e" d="M21.04,34.58l-2.92.05c-.44,0-1.21-.72-1.36-1.1-.17-.46.39-1.67.94-1.69l3.3-.14.04,2.89Z"/>
      <path class="e" d="M57.61,40.86l-3.38.22.08-3.13,3.46.31c.33.03.86.88.95,1.2.1.39-.63,1.37-1.11,1.4Z"/>
      <path class="e" d="M42.48,26.15l-3.17.05.28-3.48c.03-.4.81-1.07,1.17-1.06s1.25.59,1.29.95l.42,3.54Z"/>
      <path class="e" d="M48.75,26.27l-3.17-.19.47-3.73c.05-.36,1.12-.71,1.42-.54s1.05.78,1.07,1.15l.21,3.31Z"/>
      <path class="e" d="M48.57,62.45c-.02.44-.99,1.2-1.35,1.14s-1.23-.64-1.25-1l-.19-3.55h2.92s-.13,3.4-.13,3.4Z"/>
      <path class="e" d="M58.7,45.59c.52.91-1.31,2.2-4.5,1.78l.15-2.97,3.42.25c.26.02.79.71.92.93Z"/>
      <path class="e" d="M20.96,53.58c-2.27.49-4.19.23-4.36-1.29-.05-.43.74-1.31,1.22-1.33l3.25-.1-.11,2.72Z"/>
      <path class="e" d="M57.83,53.5l-3.59.31.13-2.98,3.49.23c.32.02.85.93.87,1.26s-.56,1.15-.89,1.18Z"/>
      <path class="e" d="M20.97,47.37c-2.59.18-4.54-.29-4.29-1.46.07-.33.63-1.16.97-1.19l3.39-.29-.08,2.94Z"/>
      <path class="e" d="M27.27,32.44l20.8.02-.02,20.52-20.8-.02.02-20.52ZM30.38,36.73c.49-.27,1.15-1.3.91-1.69-.2-.33-.99-.97-1.39-1-.64-.06-1.28,1.23-1.03,1.73.21.42,1.1,1.18,1.51.96ZM46.52,50.08c0-.69-.56-1.24-1.24-1.24s-1.24.56-1.24,1.24.56,1.24,1.24,1.24,1.24-.56,1.24-1.24Z"/>
    </g>
  </g>
</svg>