<?xml version="1.0" encoding="UTF-8"?>
<svg fill="#FFFFFF" id="b" data-name="Warstwa 2" xmlns="http://www.w3.org/2000/svg" viewBox="0 0 63.44 60.6">
  <defs>
    <style>
      .e {
        fill:#FFFFFF;
      }
    </style>
  </defs>
  <g id="c" data-name="Warstwa 1">
    <g id="d" data-name="Ikona_9">
      <path class="e" d="M41.68,41.7l1.27,2.35c-.92-.52-1.35-1.11-2.39-2.32-.25,2.26,1.15,3.96,3.27,4.59,3,.89,3.52-2.16,7.6-.83-1.51.31-2.66.53-3.82,1.23,3.15-.28,5.61.11,6.18,3.3-1.51-1.93-2.82-2.7-5.07-2.1-1.99.53-4.59.7-6.48-.47-1.45-.9-3.08-3.05-3.36-4.69-.46-2.67-1.7-4.68-4.38-4.99l.57,3.75c.29,1.93.81,3.43,2.4,4.6,2.31,1.69-.49,5.44,3.37,5.92,2.24.28,5.5,1.33,6.33,2.56.67.99.38,2.28-.05,3.65l3.14,2.37c-1.2-.39-2.38-1.03-3.59-1.68-1.18-.99.19-1.96.04-3.23-.05-.44-.88-1.25-1.36-1.34l-5.17-.95c-2.2-.4-3.28-2.1-3.04-4.3.38-3.57-2.98-3.22-3.69-7.63l-.59-3.69c-3.09.06-5.61-1.07-7.84-3.13-1.08-.77-2.3-1.12-3.49-.93-1.15-.84-2.25-1.28-3.75-1.29l.06,2.79-11.67.78c-.46.03-1.32-.27-1.52-.56-.61-.85.37-2.76-.66-3.34-.67-.38-2.15.2-2.94.73-1.29-1.19-1.4-3.46-.25-5.03l2.41,1.03c2.3.99.55-2.62,2.14-3.64,4.1,1.55,8.07,2.27,12.36,1.1l-.07,2.88c.92.64,2.63.12,3.78-.82l.51,1.09,4.97-2.27c-1.31-.71-2.06-1.26-2.9-2.23-2.34-2.7-5.06-3.2-5.19-2.63l-.27,1.27c-.15.7-.58,1.43-1.38,1.33l-10.88-1.25c-.3-.03-1.09-.23-1.12-.49-.04-.33.05-.94.15-1.4l.29-1.39c.07-.31-.95-.74-1.26-.68l-2.4.43c-.69-1.77-.17-3.52,1.12-4.92l1.97,1.39c.25.18,1.35.24,1.51-.02.62-.99.4-3.66,1.52-3.15,3.48,1.59,6.7,2.84,10.49,2.46.38-.04,1.37-.23,1.47.11s0,1.15-.13,1.49l-.41,1.08c-.11.28.84.62,1.18.51l6.43-2.09,4.55.88,1.69-3.78c.51-1.15,1.36-2.37,2.33-2.65,1.6-.47,2.72-.22,4.12.47.95.47,2.44.28,3.05-.46,2.52-3.04-1.59-4.25.69-6.91,3.47-4.06,7.48-.62,11.03-4.54-1.56,5.37-7.64,1.29-9.94,5.63.38,1.72.87,3.81.4,5.62-.34,1.3-1.66,2.34-2.96,2.18l-3.93-.49c-.99-.12-1.94.12-2.74.84l3.66,1.36-3.56-.21c-1.58-.09-.39,5.33-4.83,5.07l-3.2-.19,2.92,1.65c1.37.78,3.41.51,4.88-.22.67-.34,1.08-1.43.95-2.12-.28-1.48.61-2.81,1.99-2.64,1.82.23,3.44-.1,5.1-1.2l3.69.97,4.25-3.3,1.06-3.74c.13-.46,1.04-1.18,1.38-1.24-1.54,3.17-.38,5.38-4.27,7.78,1.65.24,2.76-.51,4.14-1.53-.95,2.12-3.13,2.42-5.15,2.97-1.06.29-2.09.69-3.21.49-1.81-.32-3.39-.26-5.2-.14-.56.04-1.93-.26-2.37.13-.77.68-.35,2.17-.04,3.14-1.43,2.52-5.38,3.96-8.08,2.48-1.79-.98-3.51-2.16-5.39-1.78l2.28,3.64c.94,1.51,4.78-.16,6.69,1.44.98.82,2.04,2.1,3.19,2.26,2.51.33,4.23-1.24,5.43-3.36l3.26.51c1.67-2.07,4.38-4.48,7.37-4.05,3.24.47,7.63,2.81,9.24,1.3.8-.75,1.31-1.75,1.94-2.83l-.49,2.59c-.32,1.7-2.13,2.67-3.59,2.07,1.11-.03,1.08-.42.42-.66-1.29-.03-2.3,0-3.2.27-2.27-1.32-5.01-2.05-7.89-1.37l-2.67,3.2c-1.54,1.85-2.99-1.06-4.05.33-1.19,1.55-2.43,2.14-4.26,2.86,2.12,2.06,4.44.83,7.31-.69,2.26-1.2,4.99-.79,6.6,1.22.23,2.11,1.02,3.85,2.3,5.6,1.6,3.18,4.15-1.68,8.76,1.47l-3.63-.65-4.31,2.06c-.95-1.72-1.92-2.45-3.53-3.07-1.24-1.24.09-4.17-1.29-5.34-2.4-2.04-5.75,1.06-8.47,2.7-2.83,1.71-6.29-3.46-10.88-4.08-1.45-.2-3.29.66-4.56,1.07,4.3.62,5.67,2.07,7.77,5.64,3.2-.23,5.96,1.57,6.6,4.74.24.23,1.1.93,1.31,1.31ZM31.72,35.61c-.63-1.91-2.21-2.92-4.15-3.16l-3.99-.69,3.19,2.19c1.47,1.01,2.95,1.67,4.94,1.66Z"/>
      <path class="e" d="M13.45,60.35c-3.13,1.09-1.92-5.36-5.4-3.11l-1.38.9c-1.14-.99-1.98-2.9-1.86-4.39.09-1.19,2.13.31,4.21-.21l-.94-2.31c-.08-.2-.28-.7-.14-.8l.91-.61c3.59.6,7.11-.1,10.25-1.81.38-.27.98-.64,1.32-.7.83-.17.68,2.14,1.51,2.72.32.22,1.27-.09,1.55-.4l1.38-1.58c1.45,1.03,2.06,2.47,2.19,4.47l-2.33.16c-.36.02-1.09.29-1.27.55-.46.66,1.16,1.86.91,2.54-.13.36-.83,1.07-1.2,1.2l-9.71,3.39Z"/>
      <path class="e" d="M20.9,14.49l-12.32-2.7-.65-.66c-.23-.23,1.65-2.46.49-2.66-.86-.15-2.23.26-3.12.54-1.27-1.03-.27-4.19.96-4.93.6-.36,1.16,1.27,3.11,1.31,1.33.02.44-3.22,2.18-3.6,3.68,1.71,7.31,2.96,11.51,2.61.58-.05,1.42.87,1.22,1.3l-1.21,2.59c.05.44,1.34.7,1.8.61l1.71-.34c.57,1.88-.34,3.91-1.7,4.97-.98-.97-1.62-1.46-2.93-1.89l-1.05,2.84Z"/>
      <path class="e" d="M9.16,48.29c-.56.13-1.62.08-1.98-.13-1.01-.59-.25-3.15-1.47-3.7-.43-.19-1.46.03-1.87.26l-1.05.6c-.64.36-2.08-2.02-1.46-4.43.28-1.07,4.08,1.34,3.88-.27-.15-1.19-.26-2.12-.06-3.18,4.51,1.15,8.58.88,12.84-.84l.38,3.11c1.2.32,2.3-.3,3.42-1.35,1.17,1.11,1.64,3.27,1.22,4.76l-3.7-.46.76,3.17-10.91,2.45Z"/>
    </g>
  </g>
</svg>