<?xml version="1.0" encoding="UTF-8"?>
<svg fill="#FFFFFF" id="b" data-name="Warstwa 2" xmlns="http://www.w3.org/2000/svg" viewBox="0 0 64.77 60.84">
  <defs>
    <style>
      .e {
        fill:#FFFFFF;
      }
    </style>
  </defs>
  <g id="c" data-name="Warstwa 1">
    <g id="d" data-name="Ikona_12">
      <path class="e" d="M29.69,40.47l-5.16.13c-.72,1.15-1.08,2.94-1.37,4.52l-3.97.02.78,4.47-4.29-.81.32,4.97-4.48-.37.14,4.83-2.76,2.62-7.34-.07c-.44,0-1.22-.91-1.24-1.43l-.31-7.88,24.9-24.97-1.41-7.08c-.26-1.32.12-2.58,1.04-3.5l9.88-9.82c.62-.61,2.49-.69,3.25-.44l4.8,1.59-1.16,5.27c-.32,1.45-1.69,2.4-1.3,4.06.57,2.39,3.51,4.53,6.21,3.71,1.07-.33,1.87-1.53,2.27-2.92l5.31.27,1.34,5.93c.36,1.62-1.57,3.21-2.7,4.08l-3.92-1.85-3.81,5.92,1.97,2.11-2.62,2.72c-.45.47-1.9,1.01-2.53.87l-7.04-1.59-4.78,4.64ZM34.47,21.58l2.56.83-.36-3.66-2.71.49c-.12.38-.02,2.17.51,2.34ZM50.44,20.39l-1.83,1.91,1.84,1.77,1.83-1.91-1.84-1.77ZM41.67,30.47l1.44-3.56-3.39-1.62-1.37,3.63,3.32,1.55ZM3.23,55.33l23-23.11-1.49-1.58L3.08,52.34c-.12,1.02-.11,1.95.14,2.99Z"/>
      <path class="e" d="M48.97,14.18c-.34.51-1.78.72-2.25.41l-2.96-1.94,1.67-5.12c2.45.42,4.34,1.66,5.92,3.12l-2.37,3.52Z"/>
      <polygon class="e" points="61.53 5.25 56.78 6.13 56.08 1.92 60.86 .74 61.53 5.25"/>
      <polygon class="e" points="64.77 18.59 61.03 19.58 60.03 16.23 63.69 15.3 64.77 18.59"/>
      <path class="e" d="M52.58,35.85c-.36-.18-1.82-1.04-1.74-1.56l.52-3.27,3.28,1.5-2.06,3.33Z"/>
      <path class="e" d="M48.34,4.15l-2.49-1.26c.05-1.15.66-2.14,1.5-2.89l2.64,1.6-1.65,2.55Z"/>
      <path class="e" d="M57.41,13.01l-3.63-.49,3.17-3.22,1.28,1.45c.32.36-.44,1.7-.82,2.26Z"/>
      <circle class="e" cx="59.09" cy="24.73" r="1.23"/>
    </g>
  </g>
</svg>