<?xml version="1.0" encoding="UTF-8"?>
<svg fill="#FFFFFF" id="b" data-name="Warstwa 2" xmlns="http://www.w3.org/2000/svg" viewBox="0 0 71.5 67.84">
  <defs>
    <style>
      .f {
        fill:#FFFFFF;
      }
    </style>
  </defs>
  <g id="c" data-name="Warstwa 1">
    <g id="d" data-name="Ikona_16">
      <g id="e" data-name="Ikona_16">
        <path class="f" d="M55.58,42.43l-6.31,5.54-7.88-3.54,7.99-6.99v-4.88s-17.64,15.2-17.64,15.2l.05-8.13,23.2-19.99,7.81-6.49.08,23.37c.18.42.76,1.02,1.15,1.09.51.09,1.26-.72,1.26-1.29l.05-14.95,5.93,3.24.23,15.12c.04,2.85-1.69,5.05-4.24,6.09l-5.37,2.2-6.32-5.59Z"/>
        <path class="f" d="M39.06,28.3l-30.4,26.12-.05-23.07c-.24-.47-1.04-1-1.49-.95s-.95.97-.95,1.53v14.67S.25,43.26.25,43.26L0,28.75c-.04-2.52,1.01-5.06,3.42-6.06l6.31-2.63,6.13,5.53,5.94-5.46,7.94,3.38-7.85,6.74.1,4.83,17.01-14.74.06,7.95Z"/>
        <path class="f" d="M44.03,60.52l-16.33.03-.09,7.29-14.33-12.12,14.34-12.39v7.41s18.43.03,18.43.03c-.77,1.31-1.93,2.72-1.95,3.97l-.06,5.77Z"/>
        <path class="f" d="M25.51,17.16c.93-1.6,1.91-3.22,1.91-4.77v-5.14s15.83.04,15.83.04l.13-7.29,14.29,12.05-14.3,12.26-.11-7.15h-17.75Z"/>
        <path class="f" d="M56.48,67.8c-3.75.34-6.9-1.3-8.22-4.69-.22-2.54-.74-5.83.13-8.24,1.93-2.87,4.65-4.86,7.21-7.27,2.69,2.37,5.31,4.51,7.41,7.39.55,2.44.28,5.44.03,7.93-.92,2.92-3.38,4.59-6.57,4.88Z"/>
        <path class="f" d="M15.78,20.61l-7.36-7.41c-.25-2.89-.22-5.68.1-8.56C9.54,2.07,11.78.58,14.49.18c3.6-.53,7.01.93,8.59,4.35.19,2.59.92,6-.1,8.44-1.71,3.08-4.68,5.01-7.2,7.63Z"/>
      </g>
    </g>
  </g>
</svg>