<?xml version="1.0" encoding="UTF-8"?>
<svg fill="#FFFFFF" id="b" data-name="Warstwa 2" xmlns="http://www.w3.org/2000/svg" viewBox="0 0 48.92 73.42">
  <defs>
    <style>
      .e {
        fill:#FFFFFF;
      }
    </style>
  </defs>
  <g id="c" data-name="Warstwa 1">
    <g id="d" data-name="Ikona_12">
      <path class="e" d="M35.36,25.18l.06,4.22c0,.2.84.39.93.21s.37-.79.38-.99l.17-3.13c4.44-.75,5.29,6.45,4.5,10.83l-1.72,9.55c-7.95.85-18.44-.18-24.17-5.11-1.84-1.58-1.53-3.08-1.57-4.98l-.26-12.57c-.02-.83.4-2.19.96-2.66.52-.45,1.88-.74,2.65-.72,1.73.03,2.82.9,2.85,2.64l.08,3.96c0,.23.41.75.6.88.25.17.96-.53.97-.85l.05-6.51c1.43-2.03,5.21-1.72,5.87.6.83,2.89-.56,6.54.95,7.18.31.13.92-.6.92-.99l.03-5.1c1.04-1.38,3.06-.97,4.25-.35,1.34.7,1.47,2.23,1.49,3.91Z"/>
      <path class="e" d="M36.99,4.77c-3.38-.57-5.24-.12-7.28,2.35l-2.07-3.7-2.28,4.61-2.59-4.67-2.08,4.53-1.31-2.53c-2.4-1.32-6.35-1.46-8.14.28-.76.74-1.25,2.46-1.23,3.59l.09,4.85-3.51-2.27.38,6.43-3.84-2.46c-.24,1.43-.44,3.53-.37,4.89,3.33,2.08,6.16,5.29,6.86,9.26-1.64,1.37-3.7,2.59-5.95,2.98L.41,25.48c-.97-2.24-.02-3.09.71-4.88.8-1.94-.5-4.9,1.52-6.76l2.72,1.75-.15-6,3.5,1.8c-.21-1.9-.25-4.26.77-5.85,1.74-2.71,4.76-2.83,7.62-2.4,1.39.21,2.66.65,3.51,1.65l2.15-4.79,2.43,4.91L27.56.13l2.37,4.18c2.74-1.26,5.98-1.68,8.71-.26,2.11,1.09,2.03,3.63,1.44,5.72,1.45-.52,2.3-.79,3.7-.85l-.67,5.23,3.38-1.32c.93,2.39.87,4.35,1.03,6.56.51.9,1.78,2.2,1.29,3.57-1.19,3.36-3.08,6.23-5.7,8.45-.16-2.69-.83-4.88-2.58-6.51l2.59-3.34c.78-1.01,1.31-1.5,2.75-2,.25-1.28.1-3.55-.16-4.98l-4.22,1.88.63-5.79-3.76,1.23.68-4.22c.22-1.34-.62-2.64-2.06-2.88Z"/>
      <path class="e" d="M11.79,42.71c5.64,6.33,17.66,8.14,26.44,7.23.09-.17.3.87.26,1.22-.16,1.52-20.11,1.82-25.2.51l-4.67-5.83c-2.64-3.3-4.13-7.26-4.47-11.34,2.51-.77,4.15-1.63,6.33-3.24l.81,1.53c-2.53,3.05-2.11,7,.5,9.93Z"/>
      <path class="e" d="M38.94,72.62c-8.06,1.14-16.13.97-24.21.03l.43-2.93c7.93.61,15.71.43,23.54-1.36l.25,4.27Z"/>
      <path class="e" d="M38.6,52.81c3.6-.62,6.79-1.95,7.32-4.97.05-.27,1.06-.23,1.2.02,1.62,2.8-3.82,5.63-8.78,6.42-8.43,1.34-16.91,1.4-25.34.04-3.93-.63-7.59-1.33-10.91-3.58-1.15-.78-2.15-2.44-1.68-3.74.75-2.04,2.75-3.27,4.57-3.86l.51,1.22c.02.05-4.93,1.91-3.26,4.23,1.48,2.07,4.39,3.13,6.98,3.67,9.7,2.03,19.64,2.21,29.4.54Z"/>
      <path class="e" d="M45.15,53.7c-.19-.24.89-.93,1.21-.65.94.85,1.02,3.17-.28,4.27-2.11,1.79-4.62,2.9-7.47,3.49-9.55,1.97-19.36,1.89-28.86-.37-4.91-1.17-10.17-4.48-7.61-8.12.77-.01.74,1.18.91,2.02.41,1.99,2.96,3.54,5.08,4.17,9.89,2.94,20.4,3.05,30.47.86,3.78-.82,8.34-3.18,6.55-5.69Z"/>
      <path class="e" d="M45.93,60.94c.24-.56-.04-2.19.53-2.55,1.77,1.26,1.31,3.58-.28,4.93-6.59,5.58-22.51,5.96-31.53,4.89-5.46-.65-12.92-3.07-11.15-7.59.08-.21.47-.86.66-.77l1.14.5c-2.15,3.19,3.22,5.53,7.73,6.22,8.99,1.37,18.16.93,26.93-1.49,2.29-.63,4.96-1.8,5.97-4.13Z"/>
      <path class="e" d="M42.21,40.09l.19-1.31c2.8,1.07,5.52,2.72,5.39,4.81-.47,7.33-28.47,7.52-35.61-2.6-1.63-2.31-1.83-5.23.31-7.2l.15,4.73c.08,2.4,2.79,4.32,5.03,5.41,7.34,3.56,15.67,4.35,23.68,2.87,2.05-.38,4.8-1.85,4.98-3.21.05-.36-.34-1.24-.7-1.45l-3.42-2.04Z"/>
      <path class="e" d="M37.94,58.19c-7.77,1.63-15.39,1.73-23.04.48l-.14-2.65c7.59.87,15.06.98,23.03-.39.13.53.17,1.31.14,2.55Z"/>
      <path class="e" d="M38.28,64.25c-7.63,1.8-15.23,2.16-23.16,1.25l-.05-2.59c7.82.86,15.18.86,22.84-.56l.38,1.89Z"/>
      <path class="e" d="M12.62,55.8c-.99,1.3-3.13,1.8-4.96,1.04,1.26-.88,2.78-2.13,4.96-1.04Z"/>
      <path class="e" d="M8.07,47.91c.19-.09,1.1.73,1.26.87.21.18-2.58,1.97-4.22.56l2.96-1.44Z"/>
      <path class="e" d="M43.63,55.75c-1.49,1.62-3.01.63-4.18-.35,1.45-.44,2.82-.31,4.18.35Z"/>
    </g>
  </g>
</svg>