<?xml version="1.0" encoding="UTF-8"?>
<svg fill="#FFFFFF" id="b" data-name="Warstwa 2" xmlns="http://www.w3.org/2000/svg" viewBox="0 0 65.8 70.19">
  <defs>
    <style>
      .e {
        fill:#FFFFFF;
      }
    </style>
  </defs>
  <g id="c" data-name="Warstwa 1">
    <g id="d" data-name="Ikona_9">
      <path class="e" d="M58.66,43.47l5.05,3.81c.84.63,2.33,1.82,2.07,3.06-5.64,9-17.3,14.87-26.84,19.39-3.99.57-7.71.64-11.7.07-6.56-2.91-12.72-6.25-18.51-10.46-3.31-2.4-5.95-5.17-8.47-8.38-.59-.75-.09-2.03.54-2.55l5.14-4.27c2.13-1.77,4.1,3.25,9.04,5.73l7.6,3.81c1.69.85,2.96,1.81,3.45,3.76.36,1.42,1.45,2.9,3.11,2.92l7.29.05c1.73.01,2.95-1.12,3.33-2.72.49-2.03,1.64-3.26,3.54-4.02,4.54-1.82,8.91-4.12,12.47-7.47l2.88-2.7ZM7.91,50.04c0-.9-.73-1.62-1.62-1.62s-1.62.73-1.62,1.62.73,1.62,1.62,1.62,1.62-.73,1.62-1.62ZM61.24,50.02c0-.91-.73-1.64-1.64-1.64s-1.64.73-1.64,1.64.73,1.64,1.64,1.64,1.64-.73,1.64-1.64Z"/>
      <path class="e" d="M58.61,2.34c.12,2.19-1.24,3.69-2.14,5.14-3.14,5.09-7.58,1.41-10.46,4.04-2.2,2-.45,6.5-2.35,7.45-6.26,3.14-13.21,3.04-19.69.83-4.77-1.63-1.55-5.61-3.92-8.04-2.45-2.51-6.39-.46-8.55-2.05-2.08-1.54-3.86-4.2-4.28-6.72C6.89.87,9.18,0,10.76,0l20.91.03c-2.16,4.52-5.18,9.69-.86,10.5.67-.36,1.64-1.59,1.99-2.13l2.28,2.2c4.16-.96,1.23-6.16-.87-10.57h22.26c.71.36,2.1,1.55,2.14,2.31Z"/>
      <path class="e" d="M55.13,31.08l.94-.98c.23-.24,1.22.43,1.22.79v8.85c.01,1.35-1.4,2.63-2.3,3.46-4.08,3.82-8.84,6.09-13.92,8.31-4.31,1.88-8.91,2.79-13.45,1.04-4.77-1.83-9.34-3.83-13.49-6.86-1.91-1.4-4.51-3.02-5.38-5.28-.72-3.07-.51-6.72.04-9.84.22-1.06,1.75.34,2.19.82,3.05,3.31,7.4,5.59,11.57,7.26,4.06,1.63,2.31,5.65,5.97,6.27,2.93.5,5.9.45,8.88.03,3.59-.5,1.81-4.65,5.9-6.28,4.39-1.75,8.49-4.1,11.83-7.57ZM12.52,40.16c1.67-1.24.45-3.57-.97-3.86-.62.47-.82,1.66-.71,2.45.08.57,1.21,1.75,1.68,1.41ZM55.14,37.81c-.06-.71-.23-1.37-.54-1.37-.24,0-.95.17-1.15.29-.87.55-1.39,2.89-.1,3.39.96.37,1.88-1.2,1.79-2.31Z"/>
      <path class="e" d="M9.33,16.23c0-.48.59-1.47,1-1.58.48-.14,1.31.47,1.68,1.02,2.43,3.62,6.05,6.09,10.05,7.79,1.82.77,2.98,1.67,3.45,3.81.19.86,1.12,2.26,2.06,2.47,3.79.85,7.54.79,11.32-.11,2.27-2.08.89-4.45,4.95-6.13,4.59-1.9,8.03-4.84,10.85-8.89.4-.58,1.71.67,1.73,1.28l.16,7.41c.05,2.19-.67,3.53-2.22,5.02-4.03,3.85-8.96,6.26-14.06,8.45-4.92,2.11-9.8,2.13-14.74-.01-5.24-2.27-10.33-4.69-14.43-8.76-1.19-1.18-1.94-2.64-1.91-4.29l.12-7.48ZM12.92,25.51c1.26-1.19.83-3.64-.83-3.84-.63-.08-1,1.44-.84,2.02.21.76.92,1.86,1.66,1.82ZM52.98,25.5c1.69-.62,2.04-2.91.9-3.91-.79.06-1.6.97-1.72,1.6-.15.79.17,2.12.82,2.31Z"/>
    </g>
  </g>
</svg>