<?xml version="1.0" encoding="UTF-8"?>
<svg fill="#FFFFFF" id="b" data-name="Warstwa 2" xmlns="http://www.w3.org/2000/svg" viewBox="0 0 68.3 70.55">
  <defs>
    <style>
      .e {
        fill:#FFFFFF;
      }
    </style>
  </defs>
  <g id="c" data-name="Warstwa 1">
    <g id="d" data-name="Ikona_4">
      <path class="e" d="M38.85,42.6l-11.63-11.67,18.11-18.19c.54-.55,2.05.24,2.72.64.49.29,1.62-.4,1.92-.88,1-1.56-.6-3.41-.06-3.53l1.27-.28c4.49-1.32,8.37-3.38,12.58-5.83-.34,4.05-1.38,7.62-2.81,11.3l-21.14,21.31c-.14,1.86.27,3.45.96,5.21l-1.92,1.92ZM45.58,15.23l-13.93,13.94,3.52,3.51,13.93-13.94-3.52-3.51Z"/>
      <path class="e" d="M16.63,67.39c-.39.87-1.89,2.46-2.76,2.89-1.8.39-3.95.31-5.76.07L.12,62.21c-.17-.93-.26-3.06.38-3.72l4.36-4.56c.92,1.6,1.84,2.38,3.38,2.69l3.58.72,11.35-11.66-.17-4.12-2.36-2.38,2.38-2.8c.9-1.06.35-3.01-.63-3.87-.59-.53-1.01-1.49-.69-2.07.26-.46,1.27-1.1,1.85-.94l17.53,17.58-1.69,2.03c-2.02-1.4-3.18-3.72-5.85-2.46l-2.19,1.04-1.8,2.3-2.44-2.77c-.46-.52-1.93.25-2.46.78l-7.38,7.57c-.37.37-1.13,1.66-.79,2.04l2.69,3.02-2.66,3.42c-.47.6.05,2.28.11,3.34ZM32.27,41.75l-4.54-4.64-3.01,3.27,4.4,4.4c1.33-.88,2.2-1.67,3.16-3.03ZM13.07,66.64c.48-1.97-.04-4-.41-5.86l-7.39-2.73c-1.16.39-2.69,2.18-2.3,3.28l5.97,6.03c.77.78,3.79.62,4.12-.72Z"/>
      <path class="e" d="M41.24,36.16l20.72-21.02c2.38-3.95,2.91-8.87,3.34-13.3l3-1.84c-.27,5.42-.6,11.89-3.84,16.58l-22.21,22.91c-.7-.93-.85-1.8-1.01-3.33Z"/>
      <path class="e" d="M12.52,54.51c-1.2,1.23-1.72,1.4-3.38.83-1.32-.45-2.71-.92-3.29-2.57l13.1-12.89c2.34,1.3,3.26,3.34,2.45,5.57l-8.88,9.05Z"/>
      <rect class="e" x="21.11" y="53.41" width="1.73" height="3.86" transform="translate(-32.39 31.05) rotate(-44.27)"/>
      <rect class="e" x="23.42" y="51.11" width="1.73" height="3.68" transform="translate(-30.65 33.58) rotate(-45.94)"/>
      <rect class="e" x="18.9" y="55.94" width="1.66" height="3.58" transform="translate(-35.04 30.85) rotate(-45)"/>
      <rect class="e" x="25.95" y="48.86" width="1.61" height="3.61" transform="translate(-27.58 32.48) rotate(-43.66)"/>
      <path class="e" d="M39.77,25.71c-.14.15-.87.01-1.02-.12-.2-.18-.42-.89-.23-1.08l1.77-1.82c.14-.15.83-.2,1.03-.16.27.06.68.83.49,1.03l-2.04,2.16Z"/>
      <path class="e" d="M35.69,29.74c-.27.24-1.35-.47-1.44-.81l2.55-2.6c.39.25,1.13.99.98,1.21-.37.55-1.52,1.71-2.08,2.2Z"/>
      <path class="e" d="M8.91,65.15l-2.06-2.11c-.2-.21.33-1.11.64-1.24,3.15,2.27,3.21,4.27,2.17,3.81-.18-.08-.61-.3-.75-.45Z"/>
      <polygon class="e" points="29.31 42.85 26.65 40.22 27.42 38.98 30.28 41.79 29.31 42.85"/>
    </g>
  </g>
</svg>