<?xml version="1.0" encoding="UTF-8"?>
<svg fill="#FFFFFF" id="b" data-name="Warstwa 2" xmlns="http://www.w3.org/2000/svg" viewBox="0 0 68.28 68.09">
  <defs>
    <style>
      .e {
        fill:#FFFFFF;
      }
    </style>
  </defs>
  <g id="c" data-name="Warstwa 1">
    <g id="d" data-name="Ikona_8">
      <path class="e" d="M27.43,52.54c-.85.85-3.51.59-4.3-.06l-8.37-8.47c-.68-.69-.45-3.08-.01-4l26.12-26.26-1.24-1.98c-.28-1.01,1.39-2.72,2.58-2.47l15.26,15.35c.4.41.31,1.57-.06,1.91-.59.55-1.41,1.18-1.93,1.16s-1.3-.74-1.86-1.34l-26.2,26.17ZM36.29,26.3l-2.51-2.55-16.44,16.54c-1.09,1.09-.93,2.47.04,3.44l6.72,6.7c.55.55,1.99.68,2.65.03l25.49-25.65-9.68-9.73-2.86,2.82,3.21,3.48c.33.35-.9,1.45-1.22,1.14l-3.38-3.29-3.18,3.25,3,3.12c.2.21-.37,1.2-.66,1.18s-.95-.23-1.18-.47Z"/>
      <path class="e" d="M60.68,11.05l-7.25,7.28-4.33-4.4,7.38-7.31-3.69-4.08c-.7-.77,1.33-2.66,2.56-2.53l11.95,12.12c.58,1.16-1.66,3.43-2.54,2.63l-4.07-3.72Z"/>
      <path class="e" d="M63.2,34.29c-3.04-.97-3.47-4.29-2.32-6.84l3.37-7.48,3.72,8.29c.6,1.33.23,3.27-.48,4.42s-2.51,2.19-4.29,1.62Z"/>
      <path class="e" d="M16.05,55.91c-2.03-.93-3.28-2.45-4.58-4.33l3.92-4.66,5.04,5.11-4.38,3.88Z"/>
      <path class="e" d="M3.54,65.22l-3.54,2.87c.1-1.62.73-2.73,1.72-3.74l9.73-9.84,1.48,1.37-9.39,9.33Z"/>
      <path class="e" d="M28.16,37.23c.22.2,1.12-.21,1.16-.48s-.13-.98-.37-1.23l-2.14-2.27,3.09-2.96c2.82.28,4.67,3.19,7.88.71l2.78-2.15c1.58-1.22,3.69-1.41,5.36-.17l-20.57,20.56-7.01-7.28,7.03-7.21,2.79,2.48Z"/>
    </g>
  </g>
</svg>