<?xml version="1.0" encoding="UTF-8"?>
<svg fill="#FFFFFF" id="b" data-name="Warstwa 2" xmlns="http://www.w3.org/2000/svg" viewBox="0 0 64.91 68.57">
  <defs>
    <style>
      .e {
        fill:#FFFFFF;
      }
    </style>
  </defs>
  <g id="c" data-name="Warstwa 1">
    <g id="d" data-name="Ikona_13">
      <path class="e" d="M52.64,54.49c-2.16-2.87-2.59-6.51-4.6-10.07l5.94-.27c.78,2.13,2.39,3.2,4.09,3.34,2.05.18,3.8-.8,4.59-2.43.9-1.84.74-4.04-.97-5.76.81-1.7,1.61-3.42,3.19-5.24l.03,33.26c-4.24-4.37-8.71-8.1-12.27-12.84Z"/>
      <path class="e" d="M17.41,60.91l-5.46-.24c1.1-3.85.48-4.17-2.17-6.71,4.16-1.79,7.82-4.06,10.6-7.37l5.82,4.31c4.49.31,8.82.27,13.25-.6l6.82-5.28,3.7,8.76-4.1,1.03c-3.59.9-5.13-1.89-7.4-1.73l-13.84,1.03-7.21,6.79Z"/>
      <path class="e" d="M38.83,48.86c-4.21.59-8.15.75-12.21.56l-5.34-4.08,1.84-3.79c3.95-5.49,11.66-6.58,17.16-3.05l5.27,4.8-6.73,5.56Z"/>
      <path class="e" d="M8.89,42.61l2.85-16.07-2.69-4.86,4.75-11.53c.4-.98.93-1.85,1.65-2.58l.24,4.75c.05,1.01,2.02,2.26,2.99,3.12-2.44,7.73-4.34,15.38-5.51,23.42-.34,2.33-1.94,3.84-4.28,3.76Z"/>
      <path class="e" d="M3.2,48.23c-.51.43-2.22.35-2.85.2-.95-5.57.1-10.74,2.37-15.81l5.35-9.51,2.19,3.68-3.23,18.15-3.84,3.29Z"/>
      <path class="e" d="M53.84,42.28l-6.65.15-5.42-5.15c5.59-5.41,13.72-7.23,21.12-4.07l-2.67,5.12c-3.06-.82-5.77.45-6.37,3.96Z"/>
      <path class="e" d="M4.99,48.65c3.18-1.88,3.29-4.31,5.57-4.7,2.62-.44,3.9-2.09,4.31-4.55l1.1-6.66,4.73-2.79.95,7.1c.87,6.46-6.95,12.72-13.21,15.31l-1.66-2.45c-.24-.35-.94-.78-1.8-1.25Z"/>
      <path class="e" d="M33.86,62.34c1.21-1.45,2.17-2.6,1.82-4.06-.43-1.79-2.02-2.62-3.56-2.29-3.74.81-1.8,4.41-3.03,5.78-.4.45-1.62.87-2.25.74l-7.26-1.51,5.56-5.29,12.66-.96c2.33-.18,3.59,2.46,8.1,2.06-.5,1.25-1.28,2.2-2.33,2.93-3.11,1.16-5.99,2.14-9.7,2.59Z"/>
      <path class="e" d="M27.36,12.27l2.23,1.28-1.86-3.93-2.74,2.57c-1.24,1.16-2.71,2.77-4.6,2.06-.97-.36-2.78-1.6-3.01-2.53-.34-1.32-.08-3.15.09-4.25l8.4-.73c.44.81,1.31,1.8,1.95,1.89.98.14,1.81-.15,3.23-.75l1.92,6.41c-1.47.95-2.73,1.54-4.5,1.58-.9.02-2.13-1.47-2.62-2.32l1.51-1.28Z"/>
      <path class="e" d="M62.17,67.42l-9.69.11-5.18-7.8c-.49-.74.16-2.75.85-3.22.83-.55,2.47-1.09,3.05-.48l10.97,11.39Z"/>
      <path class="e" d="M10.5,57.34c.05,1.07-.38,2.51-.94,3.57-3.16-.77-6.08-1.35-8.51-3.33C.01,55.55.21,52.78.24,50.37l5.06.26c1.57,2.5,2.99,4.44,5.2,6.71Z"/>
      <path class="e" d="M13.61,62.46l1.97.04c2.35,4.36,7.46,5.53,11.56,2.86,3.58-2.33,3.88-5.51,5.39-5.9,1.52-.39-.63,6.01-5.73,8.2-5.24,2.25-10.93.25-13.18-5.2Z"/>
      <path class="e" d="M19.92,27.65c-.36,1.49-2.21,2.54-3.52,2.96.99-5.05,2.19-9.63,3.7-14.43l2.56.09-2.73,11.38Z"/>
      <path class="e" d="M32.31,65.29c-.34-.25.74-1.41,1.09-1.25,4.48,2.92,9.75,1.99,13.12-2.32.33.37.74.99.95,1.5-3.83,4.44-10.15,5.63-15.17,2.06Z"/>
      <path class="e" d="M27.22,4.39c-1.56,1.36-6.51,1.97-8.91,1.07,4.58-2.53,8.85-3.96,13.6-5.46-.68,1.07-1.48,1.59-2.33,2.33l-2.37,2.06Z"/>
      <path class="e" d="M61.61,42.82c0,1.72-1.4,3.12-3.12,3.12s-3.12-1.4-3.12-3.12,1.4-3.12,3.12-3.12,3.12,1.4,3.12,3.12ZM60.08,42.84c0-.88-.72-1.6-1.6-1.6s-1.6.72-1.6,1.6.72,1.6,1.6,1.6,1.6-.72,1.6-1.6Z"/>
      <path class="e" d="M34.33,14.21l-2.48-7.72,2.04-1.07,2.76,6.91c.14.63-1.45,1.75-2.32,1.89Z"/>
      <path class="e" d="M38.19,12.27l-3.48-7.98,1.65-1.13,3.23,5.72c.22.39.53,1.56.29,1.92-.24.36-.78.76-1.68,1.48Z"/>
      <path class="e" d="M42.19,7c.32.49-.55,2.02-.99,2.23l-3.91-7.01,1.23-.81,3.67,5.59Z"/>
      <path class="e" d="M39.74,15.97c-1.77.84-3.15,1.07-4.11-.66l4.91-3.01c.4.36.89,1.43.83,2.01-.05.55-1,1.37-1.63,1.66Z"/>
      <path class="e" d="M30.25,6.35c0,.46-1.12,1.08-1.56,1.03s-1.36-.54-1.56-1.01c-.19-.43.84-1.17,1.3-1.24.55-.08,1.81.42,1.82,1.22Z"/>
      <path class="e" d="M33.08,4.04c.1.53-1.04,1.14-1.59.96-.51-.17-1.55-.95-1.46-1.45.45-1.15,2.78-1.01,3.04.49Z"/>
      <path class="e" d="M35.44,1.78c.06.3-.94,1.18-1.19,1.01l-2.02-1.39c.44-.35,1.04-.76,1.43-.91.46-.17,1.65.66,1.77,1.28Z"/>
    </g>
  </g>
</svg>