<?xml version="1.0" encoding="UTF-8"?>
<svg fill="#FFFFFF" id="b" data-name="Warstwa 2" xmlns="http://www.w3.org/2000/svg" viewBox="0 0 79.34 68.27">
  <defs>
    <style>
      .e {
        fill:#FFFFFF;
      }
    </style>
  </defs>
  <g id="c" data-name="Warstwa 1">
    <g id="d" data-name="Ikona_14">
      <path class="e" d="M47.51,58.36l-15.62-.06-8.03,9.91-16.68.06L0,55.69l8.67-14.97,12.2-1.83,7.56-13.07-4.21-11.74L32.39,0h14.57s8.13,14.12,8.13,14.12l-4.12,11.82,7.57,12.94,12.15,1.87,8.65,14.99-7.15,12.51h-16.7s-7.98-9.9-7.98-9.9ZM43.58,5.88l7.2,12.56c.42-.81.82-1.93.87-2.75l-6.91-11.89-10.12-.03-6.98,12.12.96,2.5,7.18-12.56,7.8.05ZM55.68,59.59l11.65-.07-7.6-6.95,9.7,3.24-5.79-10.04-5.89-1.32-11.87-20.32,1.65-5.73-5.64-9.8-2.25,10.32-2.07-10.41-5.74,9.87,1.69,5.71-11.86,20.32-6.07,1.42-5.56,9.86,9.4-3.14-7.4,6.98,11.72.02,4.14-4.66h23.54s4.25,4.7,4.25,4.7ZM25.02,62.35l-14.51.06-3.79-6.67,7.44-13.03-2.5.36-7.31,12.75,4.89,8.6h14.47s1.31-2.08,1.31-2.08ZM55.81,64.46l14.28-.05,4.96-8.59-7.33-12.7-2.53-.28,7.45,13-3.83,6.53-14.62.04,1.61,2.05Z"/>
      <polygon class="e" points="48.25 62.87 30.9 62.85 32.78 60.42 46.39 60.37 48.25 62.87"/>
      <polygon class="e" points="19.65 36.96 16.49 37.49 25.06 22.61 26.28 25.38 19.65 36.96"/>
      <polygon class="e" points="59.84 37.1 53.16 25.56 54.42 22.83 62.88 37.5 59.84 37.1"/>
      <path class="e" d="M41.21,43.73l-3.11.07-1.92-14.34c-.16-1.21.05-2.52.22-3.89l6.61.05-.08,5.4-1.72,12.72Z"/>
      <polygon class="e" points="42.17 51.31 37.21 51.32 37.14 46.6 42.06 46.58 42.17 51.31"/>
    </g>
  </g>
</svg>