<?xml version="1.0" encoding="UTF-8"?>
<svg fill="#FFFFFF" id="b" data-name="Warstwa 2" xmlns="http://www.w3.org/2000/svg" viewBox="0 0 64.9 74.45">
  <defs>
    <style>
      .f {
        fill:#FFFFFF;
      }
    </style>
  </defs>
  <g id="c" data-name="Warstwa 1">
    <g id="d" data-name="Ikona_4">
      <g id="e" data-name="Ikona_4">
        <path class="f" d="M53.42,67.21c-2.17.46-5.27.57-7.62.14-.85-1.26-1.35-2.16-2.63-3.29-.29,2.39,1.87,3.92.82,5.57l-2.76,4.36-4.01.19c-.06-1.04,1.03-1.87,2.31-2.25l1.94-3.16-2.21-4.62c-.21.15-.45.77-.64,1.62-8.42-3.96-11.84-14.02-7.42-22.5,4.26-8.18,11.04-10.48,12.07-18.22.67-5.02-2.15-9.51-7.07-10.79-2.82-.73-5.68-.26-8.37.71l-.59-.48c-.15-.12-.81-.19-.78.01l.18,1.06c1.57,2.55,1.01,5.49-1.62,6.96-4.97,2.21-5.54,8.05-9.97,6.7l2.33-2.54c1.31-1.43,1.09-3.51,1.25-5.67l2.96-.18c.57-.03,1.63-.45,2.08-.89s.64-1.81.27-2.24c-1.21,1.26-1.78,1.82-3.17,1.7-3.94-.33-6.37,2.54-7.54,2.16l-5.19-1.69c.03-6.17,5.44-6.54,5.72-10.75.08-1.23-.73-3.67-2.24-3.6-1.71.08-3.02.04-3.59-1.53s.35-3,1.97-3.19c1.37-.11,2.78,1.07,2.69,2.79,2.43,1.68,3.31,4.18,2.81,7.38,1.38-1.6,2.52-2.55,4.39-2.96l6.14-1.38c4.91-1.1,9.91-1.2,14.48.92,5.81,2.7,9.38,8.22,9.42,14.67.03,4.67-1.54,9.14-4.67,12.6l-5.93,6.56c-1.79,1.98-3.31,4.27-3.83,6.91-.8,4.07.98,7.81,4.67,9.69,3.46,1.77,7.5,2.1,11.37,1.36,2.86-.55,5.3-2.7,4.65-5.4-.71-2.97-6.03-3.07-8.72-1.55l-6.68,3.78c-2.12-.79-3.95-3.69-3.56-6.11,6.88-6.56,19.99-8.94,25.68-1.28,3.44,4.63,2.3,11.27-1.8,15.16l-3.89-.91c1.97,3.55,4.8.75,5.21,6.56.16,2.3,2.65,2.36,1.85,4.42l-2.17-1.73-1.73,2.18-.34-2.23-2.28,1.61c-.34-1.71.81-2.29,2.24-2.68.26-.49.08-1.96-.24-2.61-.8-1.56-4.72.17-5.49-4.44l-.8,3.1ZM11.13,3.2c0-.56-.46-1.02-1.02-1.02s-1.02.46-1.02,1.02.46,1.02,1.02,1.02,1.02-.46,1.02-1.02ZM22.78,12.19c-1.03-1.36-3.04-.74-4.13.12-.93.73-1.92,2.49-.95,3.75s3.06.84,4.17-.08c.85-.71,1.92-2.46.92-3.78ZM15.66,15.56c-.57-.53-2.1-.18-2.69.35-.49.45-.93,1.76-.51,2.37.8,1.15,2.3.91,3.06.24.7-.62,1.24-1.94.14-2.96Z"/>
        <path class="f" d="M22.24,58.47c1.26,2.56,2.62,4.67,4.7,6.59-7.92,4.1-18.64,2.79-22.03-5.11-2.96-6.87.41-14.32,7.24-17.15,3.46-1.43,7.16-1.91,10.74-1.93l-1.94,6.52c-3.06.25-6.28.98-8.38,3.36-1.16,1.32-1.6,3.21-1.19,4.91.38,1.57,1.74,2.9,3.49,3.61,2.4.7,4.73.47,7.37-.81Z"/>
        <path class="f" d="M41.81,44.96c-.52.31-2.08.24-2.96.05,1.3-2.09,2.95-4.21,4.88-5.55,7.36-.56,15.03-2.91,17.67-9.92,1.6-4.24.7-8.05-1.46-12.13,2.22.36,3.2,2.4,3.93,4.3,2.06,5.4.91,11.49-3.19,15.73-1.88,1.95-4.49,4.36-7.24,4.72-4.08.54-7.72.48-11.63,2.79Z"/>
        <path class="f" d="M10.05,32.98l-2.6-2.14,3.23.36-2.1-1.78,2.1.11c-.29-2.5.79-5.08,3.05-6.11l3.11-1.42c.65,2.35-4.34,2.71-4.1,8.85.05,1.31-.62,3.07-1.84,3.54-2.11.82-4.23-.36-5.26-2.26,1.7.48,2.55.79,4.41.84Z"/>
        <path class="f" d="M3.48,28.02l-1.52-3.06c-.34,1.72,0,3.32.5,5.23-1.86-1.21-3.02-3.85-2.21-6.04,1.21-3.3,5.79-.09,8.82-2.17l2.43.67c-1.52,2.43-3.67,2.54-5.79,2.54l-.35,1.77-1.47-2.49-.41,3.54Z"/>
        <path class="f" d="M23.2,37.49l-.67-2.58-2.73,1.89c.26-1.28.65-1.87,1.3-2.74l-2.11-.09c.86-1.16,1.79-1.23,3.26-1.18l2.97-2.29c1.55-.22,2.85.88,3.92,2.06l-1.87,2-1.59-1.7-1.88,1.5c.14,1.18.4,1.73-.61,3.13Z"/>
        <polygon class="f" points="27.59 51.92 22.72 51.64 23.11 46.21 27.91 47.64 27.59 51.92"/>
        <polygon class="f" points="28.26 45.97 23.53 44.77 25.53 39.96 29.89 42.1 28.26 45.97"/>
        <path class="f" d="M11.13,11.42c.18.28-.66,1.27-.91,1.09l-1.11-.79c-.77-.55-2.03-1.13-2.73-.53-1.3,1.1-2.74,1.14-3.77.07-.96-1-.68-2.71.33-3.49,1.48-1.13,2.69-.07,4,.9,1.11.82,3.21,1.25,4.19,2.75ZM5.35,9.67c0-.56-.46-1.02-1.02-1.02s-1.02.46-1.02,1.02.46,1.02,1.02,1.02,1.02-.46,1.02-1.02Z"/>
        <path class="f" d="M28.7,57.54c-1.23.48-3.27,1.11-4.45.07-.89-.78-1.17-3.09-1.38-4.34l4.87.24.95,4.02Z"/>
        <polygon class="f" points="30.67 40.7 26.4 38.51 29.45 34.8 33.25 37.11 30.67 40.7"/>
        <polygon class="f" points="34.26 36.02 30.64 33.59 33.81 30.34 37.47 32.57 34.26 36.02"/>
        <path class="f" d="M28.37,72.9c-2.09-.72-2.8.2-4.58-.26-.24-.06.33-.67.56-.8,2.53-1.38,1.33-3.49,3.69-5.79l2.35,1.59c-2.12,1.17-2.86,3.2-2,5.26Z"/>
        <polygon class="f" points="38.72 31.35 34.9 29.33 36.83 26.45 41.12 27.49 38.72 31.35"/>
        <path class="f" d="M28.17,63.26c-1.42-.6-2.36-2.38-3.1-3.43l4.26-.73,2.22,3.37c-.54.42-2.32,1.24-3.39.79Z"/>
        <path class="f" d="M44.4,2.31c-.68,1.3-2.71.92-4.21,3.21l-3.58-1.09c2.32-2.15,4.93-3.24,7.79-2.12Z"/>
        <polygon class="f" points="41.65 25.91 37.31 25.19 37.69 22.54 41.48 21.38 41.65 25.91"/>
        <path class="f" d="M32.87,4.02l-3.98.32c1.41-2.6,3.77-4.76,6.63-4.27-1.26,1.39-1.96,2.03-2.65,3.95Z"/>
        <path class="f" d="M51.1,7.86c.45.72-2.5-.09-4.81,1.57l-2.8-2.19c2.53-1.37,6.62-.96,7.61.62Z"/>
        <path class="f" d="M54.93,15.79l-4.72-.6-1.81-3.19c2.67.06,5.07,1.1,6.53,3.79Z"/>
        <path class="f" d="M37.39,21.26l-1.35-1.74,2.17-2.73,2.7,2.9c-1.16.69-2.11,1.09-3.52,1.57Z"/>
        <polygon class="f" points="33.7 67.28 29.57 64.93 32.72 63.66 35.85 66.3 33.7 67.28"/>
        <path class="f" d="M55.03,24.58l-3.35-2.29-.44-3.37c2.17,1.12,3.89,2.95,3.79,5.67Z"/>
        <polygon class="f" points="34.89 18.5 32.37 18.26 33.06 15.5 36.84 16.1 34.89 18.5"/>
        <path class="f" d="M52.03,32.44l-1.82-2.91.83-3.09c1.54,1.72,1.92,3.93.98,5.99Z"/>
        <path class="f" d="M25.19,5.22l-2.52.61c.67-1.78,1.35-3.72,3.77-4.31l-1.26,3.7Z"/>
        <path class="f" d="M29.23,18.83l-.3-2.52,2.28-.57c.17,1.56-.27,2.66-1.98,3.09Z"/>
        <path class="f" d="M39.88,68.62c-1.83.69-2.89.08-4.11-.54.41-.4,1.42-1.07,1.8-.91.62.26,1.67.96,2.3,1.44Z"/>
      </g>
    </g>
  </g>
</svg>