<?xml version="1.0" encoding="UTF-8"?>
<svg fill="#FFFFFF" id="b" data-name="Warstwa 2" xmlns="http://www.w3.org/2000/svg" viewBox="0 0 68.82 60.65">
  <defs>
    <style>
      .e {
        fill:#FFFFFF;
      }
    </style>
  </defs>
  <g id="c" data-name="Warstwa 1">
    <g id="d" data-name="Ikona_5">
      <path class="e" d="M54.5,59.59c-.93-1.23-1.56-2.01-2.51-1.89-1.73.22-2.23.83-2.21,2.76l-5.03.18c-.22-1.88-.99-2.46-2.29-2.49-1.48-.03-2.19.4-2.35,2.42l-4.76-.62-1.86-3.33c-2.97-.56-5.65-.85-8.77-.98-.87,1.05-1.45,2.15-2.1,3.48-.61,1.23-3.65,1.63-4.48.53-.64-1.18-.79-2.19-2.12-2.17-1.29.01-1.7.78-2.05,2.29-.9.45-3.24.47-4.04-.06l-.72-2.14c-.18-.53-1.85-.54-2.31-.21s-.7,1.22-1.03,2.25c-1.96-.08-4.69-1.21-5.86-3.14l.48-7.45c.04-.55.47-1.46.9-1.55s1.43.33,1.71.68l3.14,4.05,9.58.62c1.26.08,2.45-1.39,3.5-1.75,3.16-1.06,6.62-.43,9.74.4l8.46,2.24c7.93,1.52,15.94,1,23.75-.75,3.4-.76,3.85-4.18,6.87-5.75.95,2.34,1.03,4.91-.34,6.94-1.06,1.57-3.32,2.69-5.03,3.43-.66-1.06-1.37-1.8-2.38-1.52s-1.4,1.05-1.56,2.5c-.82.47-3.17,1.04-4.31,1.01Z"/>
      <path class="e" d="M26.7,31.15c-1.3-2.75-3.72-4.35-6.4-4.41-2.85-.06-5.43,1.63-6.69,4.46l-7.76-1.8.03-3.26,3.9.03c4.27.03,4.28-4.22,7.71-8.7,1.38-1.8,2.27-3.18,1.81-5.65-.2-1.1-1-2.54-2.48-2.41l-12.59,1.08c-.57-.87-.85-2.91-.57-3.92.11-.41,1.14-1.02,1.48-1.09l13.54-1.16,7.45.42c.8.04,1.85,1.31,1.89,2l.26,4.8c.06,1.17.54,2.88,1.32,3.48,1.22.94,2.4,1.13,4.35,1.26l-.14,2.38-5.1.24c-1.65.08-2.32,1.44-2.29,2.95.04,1.65.99,3.13,2.77,3.04l5.1-.25.78,2.45-8.38,4.07ZM26.25,9.58c0-.72-.59-1.31-1.31-1.31s-1.31.59-1.31,1.31.59,1.31,1.31,1.31,1.31-.59,1.31-1.31ZM27,14.97c0-.71-.58-1.29-1.29-1.29s-1.29.58-1.29,1.29.58,1.29,1.29,1.29,1.29-.58,1.29-1.29Z"/>
      <path class="e" d="M47.09,44.51c-1.71.07-3.82.32-4.63,1.74l-3.54,6.22-2.75-.67,3.25-7.29c.23-.52-.46-1.77-.98-1.95-.8-.27-1.49.45-2.01,1.24l-.52.79c-.14.22-.92,0-.99-.25-.28-.97,1-1.92.73-2.86-.12-.42-1.06-.95-1.5-.97-.5-.02-1.16.7-1.58,1.19l-.8.92c-.17.19-1-.51-.88-.73l.56-.99c.29-.5.56-1.45.24-1.82s-1.66-.54-2.06-.19l-5.14,4.47-1.17-3.28c2.79-1.58,4.03-4.37,3.87-7.49l8.39-4.13,1.31,1.73-3.03,3.26c-.9.97.05,2.68,1.01,3.25.61.37,1.39.79,1.89.88.55.1,1.61-.59,1.97-1.01l2.26-2.63,1.85,1.46c-.76,1.3-1.71,2.5-1.63,3.94.11,1.85,3.08,3.19,4.49,1.98.8-.68,1.48-2.14,2.02-3.1,2.31,1.05,4.39,1.77,6.81,2.37.33,1.06.39,2.65-.25,3.61l-7.18.3Z"/>
      <path class="e" d="M63.01,50.15c-2.27,2.7-16.32,3.41-22.35,2.46,1.09-2.26,2.2-4.3,3.76-6.29l8.55-.27c1.02-.03,2.45-.6,2.96-1.43.58-.94.51-2.13.43-3.82,4.95-.07,10.07.53,10.1,5.26l-3.45,4.1ZM47.94,49.23c0-.66-.54-1.2-1.2-1.2s-1.2.54-1.2,1.2.54,1.2,1.2,1.2,1.2-.54,1.2-1.2ZM51.84,49.21c0-.65-.53-1.18-1.18-1.18s-1.18.53-1.18,1.18.53,1.18,1.18,1.18,1.18-.53,1.18-1.18ZM55.81,49.14c0-.66-.54-1.2-1.2-1.2s-1.2.54-1.2,1.2.54,1.2,1.2,1.2,1.2-.54,1.2-1.2Z"/>
      <path class="e" d="M15.81,51.21l-8.89-.47-2.65-3.52c-.36-.48-1.14-.93-2.02-1.31.09-3.61.74-7.1,1.96-10.67l5.16,1.25c.99,4.24,3.63,6.82,7.76,8.1.95,1.23,1.39,3.27,1.52,4.96-.67.5-2.1,1.69-2.84,1.66Z"/>
      <path class="e" d="M12.73,22.46c-.74,1.31-1.5,2.19-2.99,2.13h-3.88s-1.39-12.49-1.39-12.49l12.75-1.08c1.13,1.72.75,4.08-.94,5.16l-3.55,6.27Z"/>
      <path class="e" d="M34.35,14.62c-8.62,1.06-.74-10.14-8.51-11.49.39-.82,1.37-2.04,2.3-2.2L33.37.02c1.16-.2,2.3.95,2.19,2.12l-1.21,12.48Z"/>
      <path class="e" d="M19.38,45.13c-.71-2.96-6.35-1.84-8.39-8.47-.29-.93-1.31-1.81-2.21-2.01l-4.13-.95.75-2.82,7.73,1.85c-.19,2.62.71,4.8,2.26,6.2,1.81,1.64,3.89,2.2,6.5,1.79.95,2.8,1.3,5.37,1.65,8.32l-3.2.06-.96-3.96Z"/>
      <path class="e" d="M25.57,33.82c0,3.01-2.44,5.45-5.45,5.45s-5.45-2.44-5.45-5.45,2.44-5.45,5.45-5.45,5.45,2.44,5.45,5.45ZM23.77,33.81c0-2.04-1.65-3.69-3.69-3.69s-3.69,1.65-3.69,3.69,1.65,3.69,3.69,3.69,3.69-1.65,3.69-3.69Z"/>
      <path class="e" d="M33.92,23.13l-5.3.1c-.74.01-.93-2.41-.24-2.73l5.46-.26.08,2.89Z"/>
      <path class="e" d="M37.09,36c-.7-.02-1.65-.82-2.02-1.58l2.85-3.16,1.88,1.75-2.7,2.99Z"/>
      <path class="e" d="M44.49,40.42c-.71-.15-1.59-.87-1.8-1.36l1.5-2.92,2.28,1.3-1.98,2.99Z"/>
      <path class="e" d="M28.08,48.17c-.3.48-.73,1.12-1.07,1.12s-1.07-.2-1.51-.35l2.95-3.95c.16-.22,1.09-.53,1.11-.32l.09.96-1.58,2.53Z"/>
      <polygon class="e" points="32.33 50.68 30.65 50.3 33.05 46.7 34.27 47.19 32.33 50.68"/>
    </g>
  </g>
</svg>