<?xml version="1.0" encoding="UTF-8"?>
<svg fill="#FFFFFF" id="b" data-name="Warstwa 2" xmlns="http://www.w3.org/2000/svg" viewBox="0 0 73.03 73.2">
  <defs>
    <style>
      .e {
        fill:#FFFFFF;
      }
    </style>
  </defs>
  <g id="c" data-name="Warstwa 1">
    <g id="d" data-name="Ikona_8">
      <path class="e" d="M23.4,54.83l-3.01-2.86,5.91-6.05,3.22-.09,26.85-26.95.62-8.66,3.95-3.99L72.79.04c-1.51,4.3-3.08,8.31-5.18,12.46L31.8,48.53c-.1,1.22-.75,3.05-1.57,3.35l-3.8.07-3.01,2.88Z"/>
      <path class="e" d="M16.73,18.82l14.38,14.54-2.36,2.43L5.43,12.42C3.53,8.29,1.9,4.56.28,0l11.78,6.21,4.06,4.26.61,8.35Z"/>
      <path class="e" d="M24.54,45.5l-5.24,5.44-1.2-1.55,3.44-3.72c-.23-2.96,2.03-5.1,5.12-5.16l28.38-28.45-.39,6.38-25.98,26.15c-1.79-.67-3.09-.18-4.14.91Z"/>
      <path class="e" d="M32.23,32.25l-13.91-13.92-.39-6.38,17.19,17.24c-.77,1.11-1.4,1.7-2.89,3.06Z"/>
      <path class="e" d="M29.88,55.67l-1.58,2.97-8.92,1.06-6.35-6.34,1.32-8.07c.14-.87,1.94-1.88,3.06-2.21l-.46,7.6,5.2,5.31,7.72-.32Z"/>
      <path class="e" d="M45,58.76l-1.97-3.07,7.91.3,5.18-5.17-.44-7.74c.93.29,2.86,1.32,3.01,2.16l1.41,8.14-6.4,6.27-8.71-.9Z"/>
      <path class="e" d="M49.86,54.88l-3.39-2.93-3.69-.02c-.56-.41-.98-1.97-1.36-2.77-.72-1.53-1.97-2.59-3.42-4.02l2.26-2.5,3.12,3.13,3.39.13,5.84,5.95-2.76,3.03Z"/>
      <rect class="e" x="60.38" y="55.95" width="4.73" height="13.31" transform="translate(-25.89 62.78) rotate(-45.05)"/>
      <rect class="e" x="3.73" y="60.31" width="13.3" height="4.57" transform="translate(-41.18 25.62) rotate(-44.94)"/>
      <path class="e" d="M53.68,50.73l-6.29-6.3-3.26-.12-2.68-2.72,2.91-3.04c2.78,3.11,7.08,1.78,7.17,6.82l2.61,3.19c.21.26.54.91.65,1.16s-.68.81-1.09,1.01Z"/>
      <path class="e" d="M68.8,73.15l-2.65-2.48,4.58-4.58c1.1.61,2.3,1.92,2.3,3.01l-4.23,4.04Z"/>
      <path class="e" d="M4.35,73.2l-4.35-4.12c.4-1.29,1.37-2.39,2.4-2.97l4.51,4.53-2.56,2.56Z"/>
    </g>
  </g>
</svg>