<?xml version="1.0" encoding="UTF-8"?>
<svg fill="#FFFFFF" id="b" data-name="Warstwa 2" xmlns="http://www.w3.org/2000/svg" viewBox="0 0 58.4 72.02">
  <defs>
    <style>
      .e {
        fill:#FFFFFF;
      }
    </style>
  </defs>
  <g id="c" data-name="Warstwa 1">
    <g id="d" data-name="Ikona_16">
      <path class="e" d="M40.43,3.39c-7.45-1.35-14.78-1.21-22.36-.09l-1.55,3.61-6.98,1.85L2.71,27.25l3.17,5.94-1.96,1.4-3.92-7.25L9.2,2.58c13.47-3.38,26.43-3.52,39.92.02l9.28,24.71-3.9,7.27-1.97-1.57,3.12-5.8-6.75-18.38-7.15-1.92-1.31-3.52ZM15.28,5.91c.55-.16,1.06-1.63,1.13-2.39l-5.41,1.19-.79,2.65,5.07-1.45ZM48.16,7.27l-1.17-2.74-5.24-.98,1.15,2.38,5.27,1.33Z"/>
      <path class="e" d="M38.45,59.43c-6.11,1.27-12.14,1.24-18.47.12l-2.76-15.54-4.16-2.18-1.33-10.78c3.77-1.22,5.86-4.2,6.85-8,7.07-1.01,14.08-1.12,21.15.06,1.14,3.63,3.02,6.76,6.87,7.97l-1.33,10.65-4.14,2.31-2.69,15.39ZM36.76,57.9l2.75-15.19,4.03-2.16.99-8.38c-3.22-1.67-5.06-4.21-6.08-7.38-6.25-.83-12.32-.85-18.46-.07-1.04,3.39-2.95,5.81-6.17,7.45l1.07,8.49,4.02,2.12,2.67,15.21c5.22.76,9.97.91,15.19-.09Z"/>
      <path class="e" d="M38.99,63.57l.64-3.18,8.55-4.8,2.08-10.07-3.73-3.38,1.28-10.69,5.35,3.66c.65.45,1.61,1.56,1.41,2.49l-4.24,19.1-11.32,6.87Z"/>
      <path class="e" d="M18.56,60.35c.46.71.75,2.29.77,3.19l-11.18-6.77-4.31-18.87c-.22-.97.43-2.14,1.13-2.62l5.57-3.86,1.33,10.54-3.77,3.5,2.01,10.06,8.45,4.82Z"/>
      <path class="e" d="M37.48,64.42c-.15.78-1.18,2.35-1.9,2.44-4.5.59-8.94.57-13.33-.12-1.46-1.58-1.83-3.77-2-5.93,6.04,1.17,11.71,1.06,17.9.03l-.67,3.58Z"/>
      <polygon class="e" points="18.5 58.8 11.22 54.79 9.5 45.95 12.76 42.99 16.14 44.93 18.5 58.8"/>
      <polygon class="e" points="47.21 54.65 39.84 58.88 42.22 44.95 45.66 42.97 48.8 45.93 47.21 54.65"/>
      <path class="e" d="M36.3,67.97c1.42-.27,1.34-3.12,4.4-3.88-.93,2.55-1.97,4.74-3.48,7.08-4.62,1.05-9.11,1-13.83.53-1.54-.15-2.86-.9-3.46-2.35l-2.22-5.34c.78.34,1.85.9,2.19,1.38l1.85,2.59c4.93.63,9.63.92,14.56,0Z"/>
      <path class="e" d="M30.91,21.07l-5.17.06.58-12.78c.03-.74,1.35-1.61,1.99-1.62.75,0,2.01.94,2.05,1.9l.56,12.44Z"/>
      <path class="e" d="M24.51,21.09l-5.18.56-.47-10.11c-.04-.82.97-1.95,1.62-2.1.84-.19,2.21.55,2.38,1.56l1.64,10.08Z"/>
      <path class="e" d="M37.23,21.44l-4.85-.32,1.14-9.9c.13-1.17.79-2.09,1.92-2.12.84-.03,2.1.99,2.07,2.02l-.27,10.32Z"/>
      <path class="e" d="M42.57,26.27c-1.74-2.08-.94-4.57-3.87-4.56l1.11-6c.16-.88,1.2-1.54,2.03-1.47.64.05,1.67,1.08,1.6,1.9l-.88,10.13Z"/>
      <path class="e" d="M15.87,25.94c-.27,1.85-2.39,2.82-3.78,3.49l-1.71-6.48c-.3-1.15,1.96-1.94,2.85-1.15,1.11.78,2.89,2.45,2.64,4.14Z"/>
      <path class="e" d="M35.72,56.85c-4.56.64-8.85.68-13.11-.08l-2.53-14.71c-1.27-.86-2.27-1.34-3.98-2.01l-.87-7.23c2.95-1.7,4.51-3.96,5.77-7.02,5.51-.49,10.82-.52,16.4.02,1.2,3.09,2.96,5.35,5.82,7.17l-.94,6.91-3.91,1.99-2.66,14.96Z"/>
    </g>
  </g>
</svg>