<?xml version="1.0" encoding="UTF-8"?>
<svg fill="#FFFFFF" id="b" data-name="Warstwa 2" xmlns="http://www.w3.org/2000/svg" viewBox="0 0 69.6 71.18">
  <defs>
    <style>
      .e {
        fill:#FFFFFF;
      }
    </style>
  </defs>
  <g id="c" data-name="Warstwa 1">
    <g id="d" data-name="Ikona_7">
      <path class="e" d="M33.73,41.77l.78-6.33-5.81,1.21-2.26-2.2,1.91-6.25L51.77,4.69,69.6,0l-3.89,17.92-23.73,23.9-5.76,2.22-2.5-2.26ZM41.24,24.24l-.42-4.91-6.71,6.62c1.74.4,2.93.66,4.31,1.32l-7.42,1.8-1.46,5.06,5.89-1.28L63.36,4.59l-7.98,2.02-1.65,4.9-.76-4.12c-1.03.54-1.79,1.54-2.19,2.67l-2.86,8.26-.26-5.86c-.73.86-2.56,2.09-3,3.19l-3.42,8.6ZM63.54,15.59l1.81-9.56-9.66,9.59,7.85-.02ZM41.96,37.13l1.44-6.41,1.19,4.82,3.74-3.67-3.33-1.93,5.53-.45,11.73-11.91-5.2.36-3.01,6.41-.47-6.5-16.47,16.39-.93,6.87,4.45-1.69c.56-.21,1.18-1.64,1.32-2.28Z"/>
      <path class="e" d="M14.53,62.84l2.63-2.65-.26-7.51,3.39,1.08.13,3.47,2.42-2.59-.68-4.44c.43-.07,1.72-.02,1.92.34l1.02,1.79,1.74-1.34c.48-.37,2.13.39,2.31.93l-13.44,13.5-7.4-7.78c2.4-.27,4.06.16,6.16.71l.05,4.5Z"/>
      <path class="e" d="M15.39,67.61c.45.49-.3,2-.74,2.4-.49.45-2.08.97-2.63.41L.59,58.89c-.77-1.22,1.24-3.6,2.63-3.38l12.16,12.11Z"/>
      <path class="e" d="M37.64,48.04c.8.79.94,1.73.48,2.24-.76.86-1.82.87-2.47-.02l-15.9-15.81c-.06-.54-.11-1.37-.06-1.77.07-.46,1.24-.81,1.81-.73l16.13,16.07Z"/>
      <path class="e" d="M14.72,49.52l-.05,6.85c-1.84-.45-2.67-1.66-2.89-3.98l-4.43,4.34-1.71-1.66,13.2-13.12c1.66,3.28,1.61,6.15,1.18,9.42l-3.2-.78.28-3.26-2.38,2.21Z"/>
      <path class="e" d="M30.81,50.12l-8.28-2.37c-.43-2.13-.87-4.27-1.66-6.18-.46-1.12-.48-2.06.64-2.88l10.47,10.46-1.17.98Z"/>
      <path class="e" d="M7.48,68.4l2.66,2.79-9.28-.65-.86-9.36c1.05.77,2.29,1.82,2.77,2.63l.28,4.32,4.44.27Z"/>
    </g>
  </g>
</svg>