<?xml version="1.0" encoding="UTF-8"?>
<svg fill="#FFFFFF" id="b" data-name="Warstwa 2" xmlns="http://www.w3.org/2000/svg" viewBox="0 0 73.41 73.65">
  <defs>
    <style>
      .e {
        fill:#FFFFFF;
      }
    </style>
  </defs>
  <g id="c" data-name="Warstwa 1">
    <g id="d" data-name="Ikona_7">
      <path class="e" d="M62.6,41.46c-5.62,13.64-17.51,24.32-31.89,30.42,8.27-5.47,15.58-11.49,20.81-19.85,3.47-5.54,5.88-11.46,5.89-17.86-2.12,6.85-5.17,13.11-10.37,17.57,4.89-7.48,7.68-15.03,7.37-23.44l13.13-12.99,2.12-2.52c5.89,10.25,4.44,23.49-1.62,33.37,1.72-6.76,3.37-13.13,1.43-19.57-.07,14.07-6.67,27.41-17.43,36.28,4.82-6.65,9.61-12.93,10.54-21.41Z"/>
      <path class="e" d="M44.57,9.03c-11.92-5.37-26.88.02-38.92,5.59,3.33-2.73,7.06-4.5,10.98-6.31,9.73-4.49,20.16-5.79,31.03-5.07-4.19-1.57-8.8-2.17-13.28-1.82l-6.94.54c11.49-3.02,25.44-3.12,35.69,3.79l-12.24,11.91c-6.38-8.17-16.94-8.19-26.86-6.98,6.44-2.41,13.2-2.67,20.53-1.65Z"/>
      <path class="e" d="M21.59,56.78l-3.95-4.24c.34-.53,1.32-1.58,1.54-1.61l2.48,1.78L59.26,16.31c2.2-2.13,3.89-4.35,3.64-7.68l7.82-7.75c1.27,5.82-2.71,11.5-7.04,15.68L26.76,52.28c-.68.66-2.13,1.15-2.6,1.67l-2.58,2.82Z"/>
      <rect class="e" x="-.92" y="62.58" width="19.17" height="5.12" transform="translate(-42.89 24.4) rotate(-44.11)"/>
      <path class="e" d="M21.82,50.55c-.3.28-1.23-.51-1.25-.98L62.15,9.42c-.47,2.65-2.07,4.44-3.96,6.24L21.82,50.55Z"/>
      <path class="e" d="M22.2,62.56c-4.18-3.39-7.28-6.53-10.26-10.72l1.74-1.93c3.41,4.13,6.36,7.4,10.43,10.92l-1.91,1.73Z"/>
    </g>
  </g>
</svg>