<?xml version="1.0" encoding="UTF-8"?>
<svg fill="#FFFFFF" id="b" data-name="Warstwa 2" xmlns="http://www.w3.org/2000/svg" viewBox="0 0 69.4 55.28">
  <defs>
    <style>
      .e {
        fill:#FFFFFF;
      }
    </style>
  </defs>
  <g id="c" data-name="Warstwa 1">
    <g id="d" data-name="Ikona_5">
      <path class="e" d="M36.37,55.25l-3.41.03-.16-3.42c-5.27-.48-9.85-2.56-13.96-5.8l-1.55,1.06-2.28-2.64,1.18-1.3c-3.48-3.79-5.2-8.5-5.71-13.72l-3.16-.1-.03-3.54,3.2-.23c.43-5.11,2.28-9.86,5.72-13.61l-1.07-1.27c-.26-.31.66-1.21.97-1.49l1.16-1.03c.25-.22.96.79,1.25,1.14,4.2-3.31,8.95-5.65,14.36-5.95l.04-3.36,3.52-.02-.02,3.3c5.28.46,10.16,2.57,14.21,6,.4-.47,1.16-1.34,1.42-1.11l1.19,1.05c.23.21.87.9.8,1.19-.08.37-.46.9-.86,1.48,3.28,3.95,5.32,8.73,5.61,13.79l3.29.02-.08,3.55-3.23.23c-.02,4.64-2.49,9.91-5.17,13.29-.13.29.38,1.27.7,1.65l-2.09,2.68-1.73-1.16c-4,3.4-8.65,5.39-13.96,5.92l-.17,3.36ZM35.51,6.13c0,1.34.04,1.95-.23,2.17s-1.4.25-1.41-.1l-.1-2.01c-7.98.18-15.2,5.35-18.38,12.01-3.83,8.02-2.46,16.88,3,23.3,3.99,4.69,9.52,7.43,15.41,7.56l.24-2.07c.04-.39,1.52-.06,1.52.34v1.79c11.42-.49,20.61-10.13,20.59-21.52-.03-11.5-9.12-21.03-20.63-21.45Z"/>
      <path class="e" d="M58.04,39.4l2.45-8.25,3.02-.73c.23-1.71.26-3.63.12-5.52l-3.14-1.04-2.49-8.01h7.35c2.1-.01,4.01,1.37,4.01,3.65l.04,15.81c0,2.36-1.74,4.14-4.11,4.13l-7.25-.03Z"/>
      <path class="e" d="M11.34,39.39l-7.26.02C2.1,39.42,0,37.9,0,35.74l.03-16.72c0-1.41,1.8-3.1,3.13-3.11l8.24-.09-2.62,8.24c-.91.06-2.17.2-2.56.67-.77.91-.84,4.17-.18,5.39.33.62,1.81.84,2.72.93l2.58,8.34ZM5.62,19.82c0-.97-.79-1.76-1.76-1.76s-1.76.79-1.76,1.76.79,1.76,1.76,1.76,1.76-.79,1.76-1.76Z"/>
      <polygon class="e" points="21.06 52.1 21.16 53.9 14.15 53.86 7.73 47.4 7.59 41.18 9.47 41.13 9.41 46.35 15.05 52.05 21.06 52.1"/>
      <path class="e" d="M48.3,53.88c-.05-.4-.03-1.75.03-1.79l5.97-.04,5.55-5.54.06-5.32,1.83-.09v6.11s-6.48,6.69-6.48,6.69h-6.95Z"/>
      <polygon class="e" points="59.99 13.97 59.81 8.67 54.46 3.22 48.17 3.13 48.28 1.33 55.18 1.34 61.74 7.97 61.68 14.03 59.99 13.97"/>
      <polygon class="e" points="9.48 8.76 9.43 14 7.67 14.06 7.66 7.97 14.2 1.33 21.04 1.33 21.19 3.16 15.08 3.17 9.48 8.76"/>
      <path class="e" d="M34.06,37.71c-7.62-.2-14.18-4.38-18.38-10.39,4.38-6.38,11.54-10.74,19.35-10.58,7.54.15,14.21,4.59,18.65,10.6-4.53,6.27-11.54,10.59-19.62,10.38ZM28.92,34.9c-4.96-4.42-4.99-10.81-.33-15.12-4.57,1.26-7.87,4.11-10.84,7.58,3.06,3.55,6.51,6.57,11.18,7.54ZM51.58,27.32c-3.27-3.66-6.56-6.47-11.14-7.66,2.56,2.29,3.79,4.82,3.7,7.92-.08,2.8-1.55,5.13-3.75,7.41,4.65-1.25,8.14-4.09,11.19-7.66ZM35.96,22.79c-2.92-.88-5.78,1.39-5.82,4.33-.04,2.62,2.27,4.88,5.13,4.51,2.55-.33,4.57-2.88,3.77-5.6-1.25.68-2.54.72-3.36-.28-.56-.68-.38-2.01.27-2.96Z"/>
    </g>
  </g>
</svg>