<?xml version="1.0" encoding="UTF-8"?>
<svg fill="#FFFFFF" id="b" data-name="Warstwa 2" xmlns="http://www.w3.org/2000/svg" viewBox="0 0 68.7 70.93">
  <defs>
    <style>
      .e {
        fill:#FFFFFF;
      }
    </style>
  </defs>
  <g id="c" data-name="Warstwa 1">
    <g id="d" data-name="Ikona_8">
      <path class="e" d="M49.13,21.18c4.86-4.95,9.6-9.7,13.63-14.98-6.06,4.57-10.31,10.1-15.79,14.82-2.06,1.45-4.8,1.73-7.23,2.98l3.51,3.06-4.64,3.73c-4.03-1.65-5.87,2.62-6.8.1,1.95-1.76,2.71-4.36,1.79-6.97C44.94,15.49,56.21,7.5,68.7,0c-4.7,8.9-9.74,16.97-15.22,25l-7.72,11.3c-2.76-1.13-5.17-.43-6.99,1.97l-.95-1.34c1.25-1.69,1.87-3.29,1.8-5.48l8.1-3.2-3.43-3.03,4.84-4.04Z"/>
      <path class="e" d="M39.57,41.16c.28,1.48-1.2,2.94-2.54,3.62l-11.62-11.61c.24-1.32,1.65-2.85,3.12-2.72l5.36,5.03,5.68,5.67Z"/>
      <path class="e" d="M12.64,68.51c-1.23.13-2.52-1.57-3.29-2.35l-7.54-7.62c.77-1.33,1.42-2.04,2.65-2.91l10.61,10.59c-.29.84-1.17,2.16-2.42,2.3Z"/>
      <path class="e" d="M17.14,66.34l-.93-.82c-.23-.2.26-1.19.56-1.12,1.43.36,2.58,2.07,4.68,1.12,3.16-1.42-.15-7.15-2.34-10.96l-3.72-6.44,7.21,7.32-.29,1.55,2.06,4.77c.85,1.97-.24,4.04-1.66,5.07-1.66,1.2-3.97.94-5.58-.49Z"/>
      <polygon class="e" points="9.37 68.32 0 70.93 2.26 61.22 9.37 68.32"/>
      <path class="e" d="M21.4,44.6l2.69,5.14c-2.7-1.83-4.14-4.32-5.68-6.98-1.02-1.76-2.17-3.58-2.47-5.6-.28-1.85,1.04-3.56,2.31-4.15,1.73-.8,3.67-.57,5.09.57l.95.76c.26.21-.36,1.04-.68,1.08-1.19.15-2.27-1.76-4.7-.63-.83.38-1.62,2.14-1.06,3.18l3.55,6.63Z"/>
      <path class="e" d="M30.73,54.79c.85,1.81.21,3.6-.86,4.83-1.01,1.16-2.73,1.7-4.42,1.07l-1.04-1.73c1.48.24,2.65.44,3.58-.04,4.01-2.05-3.25-10.75-5.18-15.42l6.01,5.91c-.03.2-.11,1.08,0,1.3l1.92,4.08Z"/>
      <path class="e" d="M12.04,41.41c-1.96,1.61.18,4.84,1.72,7.46l4.28,7.32c-3.94-3.02-6.47-7.03-8.36-11.43-.72-1.68-.04-3.54,1.06-4.61,1.28-1.24,3.32-1.56,4.95-.73l.6,1.98-2.1-.55c-.55-.15-1.72.2-2.15.55Z"/>
      <polygon class="e" points="32.4 46.35 23.98 37.8 25.99 35.59 34.45 44.19 32.4 46.35"/>
      <path class="e" d="M14.81,63.9l-8.01-8.01c.27-.78,1.07-1.73,1.84-2.32l7.9,8.01c-.26.77-.76,1.42-1.73,2.31Z"/>
      <path class="e" d="M24.22,54.96l-9.31-9.45c-.1-.13-.18-1.02.07-1.1l1.18-.38,9.97,10.28-.59,1.13c-.13.25-1.05-.24-1.32-.47Z"/>
      <path class="e" d="M31.13,47c.48.36,1.12,1.04,1.03,1.42s-.63,1.11-.88,1.3l-10.17-10.06-.09-1.04c-.03-.35,1.21-.47,1.47-.36l8.64,8.74Z"/>
      <path class="e" d="M18.28,61.39l-9.57-9.71c-.06-.35.03-1.2.26-1.45s.93.1,1.23.38l9.4,9.55c.03.38.06.78-.06.95-.16.23-.92.33-1.27.28Z"/>
      <path class="e" d="M5.28,48.21c-2.2,2.38.65,4.47.53,5.49-.03.27-.64.9-.88.75-1.92-1.17-3.05-4.48-1.56-6.67,1.2-1.75,3.44-3,5.6-2,.57.26.97,1.59.54,1.79-1.68-.58-3.15-.54-4.24.63Z"/>
      <path class="e" d="M33.27,54.39c-1.39.03-2.47-.88-2.49-2.23,1.63.84,3.25.83,4.38-.4,2.14-2.32-.86-4.98-.41-5.36l.82-.68c.23-.2,3.04,2.72,1.9,5.83-.58,1.58-2.33,2.8-4.19,2.84Z"/>
      <path class="e" d="M36.51,35.9l-2.83-2.76c1.27-1.06,2.91-1.85,4.4-1.03.3,1.22-.51,2.87-1.57,3.79Z"/>
    </g>
  </g>
</svg>