<?xml version="1.0" encoding="UTF-8"?>
<svg fill="#FFFFFF" id="b" data-name="Warstwa 2" xmlns="http://www.w3.org/2000/svg" viewBox="0 0 71.42 72.44">
  <defs>
    <style>
      .e {
        fill:#FFFFFF;
      }
    </style>
  </defs>
  <g id="c" data-name="Warstwa 1">
    <g id="d" data-name="Ikona_6">
      <path class="e" d="M23.18,24.44c-.46-5.99-.22-11.89-.14-18.08.02-1.23-.15-2.44.71-3.44l.43,12.64c.1,3.02.36,5.96-.99,8.88Z"/>
      <path class="e" d="M50.74,31.39c-2.73-1.49-5.8-1.42-8.37.54-1.2-1.94-2.07-3.82-3.47-5.53-.87-1.06-2.75-1.78-4.21-2.76l2.45-6.91c1.34-5.51,1.93-10.91,2.79-16.69h15.05s-3.96,13.42-3.96,13.42l3.73,7.5-4.01,10.43Z"/>
      <path class="e" d="M68.77,16.29l-5.27,4.71-7.41-.76-3.36-6.91L56.58.03l14.82-.03c0,2.71.1,5.4-.13,8.24-.21,2.69-1.6,5.28-2.5,8.04Z"/>
      <path class="e" d="M32.88,66.5l-.65-4.26-8.78,2.11.87,3.06c-2.65.04-5.35-.14-7.84.22l-9.13,3.49,7.6-5.15,6.11-.39-1.05-2.3,9.86-3.62c-2.86-.83-5.33-1.25-7.96-1.49l-1.57-1.9-7.41-1.61,7.89-.14,2.3,1.98,6.09.82c.54-1.65,3.09-2.36,4.33-1.24.57,3.03,2.44,2.82,3.28,5.16l1.29-1.08c.27-.23,1.14.1,1.55.23l9.89,3.2c1.08.35,2.58.41,3.92.38l2.81-6.55c.31-.73,1.19-2.02,1.67-2.67l4.83-2.45-2.69,4.03,2.32,2.29c-2.38-.79-4.65-.26-5.75,2.2,3.14-.88,4.82.17,7.13,1.4,1.9,1.02,4.29,1.26,6.56,2.15l-3.45-.05c-2.36-.03-4.4-.72-6.72-1.57l-7.5,1.76,2.61,1.94-.97,1.93,7.31,4.05c-3.01-.65-5.32-1.54-8.22-2.34l-4.56-.59,3.26-2.48-9.33-2.94.7,2.88-3.18-4.05c-1.17.95-2.66-.42-5.47,1.62l.36,2.94-4.69,1.55-2.41,2.69c.2-3.57,1.65-4.08,4.79-5.21Z"/>
      <path class="e" d="M36.72,57.1l.2-2.79c-4.79-3.02-9.74,1.93-11.21-1.14-.32-.68-.61-1.34-.87-1.68-.63-.82-2.11,2.4-5.43-.24-.13-.89-.32-1.75-.74-1.88s-1.19.35-1.84.89c-4.16-.19-2.87-2.56-4.26-3.48-.44-.29-1.2.3-1.8.84-3.91-1.04-2.28-3.61-3.57-4.24-.41-.2-1.16.29-1.93.89l-3.87-2.35,2.18-5.04,3.96,2.61c2.53,1.67,4.99,4.2,7.89,5.36,5.29,2.11,10.52,3.78,15.99,5.45l4.44.89,18.01,5.51-2.17,4.76c-4.02.15-3.14-1.98-4.42-2.66-.4-.21-1,.33-1.53.95-3.85.06-2.9-2.57-4.15-2.77-.45-.07-1.11.54-1.55,1.09l-3.33-.99Z"/>
      <path class="e" d="M44.19,44.76l-4.23,6.02c-5.28-1.89-10.19-2.14-15.04-4.35l.14-8.23-3.41-5.08,4.72.08,3.97,7.25,9.1-1.77c.53,2.54,1.75,4.78,4.74,6.09Z"/>
      <path class="e" d="M23.36,46.03c-2.38-.88-4.98-1.42-7.26-2.63-3.77-2.01-6.91-4.69-10.26-7.14,3.32-6.29,6.96-4.17,13.65-3.32l4,5.66-.13,7.43Z"/>
      <path class="e" d="M53.78,54.98l-12.17-3.78,4.15-5.83c5.15.72,6.31-3.59,10.62-2.65,0,4.36-.78,8.22-2.59,12.25Z"/>
      <polygon class="e" points="39.63 37.03 31.35 38.76 26.75 30.96 33.75 26.14 37.21 28.49 40.53 33.62 39.63 37.03"/>
      <path class="e" d="M59.51,37.62l-5.37,1.73c.36-2.56-.29-4.98-1.99-7.08l3.88-10.32,6.27.49-3.63,10.39.84,4.8Z"/>
      <path class="e" d="M52.27,37.76c0,2.97-2.41,5.37-5.37,5.37s-5.37-2.41-5.37-5.37,2.41-5.37,5.37-5.37,5.37,2.41,5.37,5.37ZM50.15,37.78c0-1.79-1.45-3.25-3.25-3.25s-3.25,1.45-3.25,3.25,1.45,3.25,3.25,3.25,3.25-1.45,3.25-3.25Z"/>
      <polygon class="e" points="12.51 29.23 9.15 29.68 10.68 5.05 12.51 29.23"/>
      <path class="e" d="M64.31,45.46l-3.86,2.53,4.74-7.95,3.28,1.07c.21,1.54.24,2.53-.96,3.53-.71.59-1.91.95-3.19.82Z"/>
      <path class="e" d="M18.63,29.91l-2.58-.29c.56-6,.27-11.46,1.27-17.6l1.31,17.9Z"/>
      <path class="e" d="M13.75,61.52c-4.66-.02-9.05-.2-13.75-.58l12.95-1.02,2.18-1.4,3.27,1.25c-2.3-.25-3.71-.29-4.65,1.75Z"/>
      <path class="e" d="M7.92,55.71l-5.73-2.5c-.49-.21-.81-1.5-.82-1.97l3.36-1.19c1.5,1.64,2.5,3.51,3.19,5.65Z"/>
      <path class="e" d="M67.99,52.69c-.25.25-1.87.48-2,.18l-.61-1.5,5.41-1.48-2.8,2.81Z"/>
      <circle class="e" cx="46.91" cy="37.76" r="1.68"/>
    </g>
  </g>
</svg>