<?xml version="1.0" encoding="UTF-8"?>
<svg fill="#FFFFFF" id="b" data-name="Warstwa 2" xmlns="http://www.w3.org/2000/svg" viewBox="0 0 73.7 73.63">
  <defs>
    <style>
      .e {
        fill:#FFFFFF;
      }
    </style>
  </defs>
  <g id="c" data-name="Warstwa 1">
    <g id="d" data-name="Ikona_9">
      <path class="e" d="M49.02,26.12l11.74-11.88c1.65-1.67,2.94-3.59,4.03-5.47-1.66,1.01-3.19,1.93-4.33,3.07l-11.59,11.51-3.55.61c.8-1.85,1.24-2.9.7-4.91L62.36,2.44l11.34-2.44-2.65,11.53-17.12,17.19c-.97.98-1.8,1.58-3.12,1.89l1.15-4.04-4.43,3c.02-1.31.5-2.44,1.5-3.45Z"/>
      <path class="e" d="M28.57,55.21l5.53,1.42-.94,4.39-7.5-1.74-11.32-11.23-1.53-7.69,4.42-.64,1.06,5.22c.35,1.73,1.65,2.32,3.43,2.61,1.19.92,3.19,2.78,4.01,4.1.74,1.68.85,3.06,2.83,3.57Z"/>
      <path class="e" d="M37.72,34.52l-11.27,10.7c-1.69-.1-3.6.03-4.96.64.53-1.6.7-3.35.48-5.31,1.08-.55,3.51-1.14,4.4-2.05l10.82-10.97-.23,4.38,3.13-2.5c.7-.56,2.37-.99,3.63-1.28l-6,6.4Z"/>
      <path class="e" d="M34.94,47.72c-.84.84-1.4,3.01-1.85,4.08-1.84-.4-3.44-.22-5.03.86.58-1.76.8-3.52.42-5.47,4.89-5.48,9.9-10.63,15.47-15.66-.32,2.37-1.16,4.13-2.04,6.11l2.65.47-9.61,9.61Z"/>
      <path class="e" d="M5.99,73.63l-5.99-5.63c.94-1.59,1.86-2.6,3.32-3.72l6,5.94c-.71,1.45-1.75,2.41-3.32,3.41Z"/>
      <path class="e" d="M22.24,28.26l2.11-4.05c2.21,1.1,4.01,1.43,6.12-.45l2.47,2.21-10.7,2.29Z"/>
      <polygon class="e" points="49.9 52.2 45.05 54.01 46.56 44.38 49.9 52.2"/>
      <path class="e" d="M33.97,20.23l-6.11-3.46,1.71-4.31c1.99,2.06,3.56,4.12,4.4,7.77Z"/>
      <polygon class="e" points="17.2 60.56 10.69 59.15 13.54 56.46 19.32 58.3 17.2 60.56"/>
      <polygon class="e" points="13.67 64.13 7.31 62.79 9.75 60.3 15.88 61.62 13.67 64.13"/>
      <polygon class="e" points="59.93 36.81 53.91 33.95 63.07 33.14 59.93 36.81"/>
      <polygon class="e" points="60.05 44.9 56.55 46.11 53 40.01 60.05 44.9"/>
      <polygon class="e" points="12.42 65.21 9.41 68.19 5.61 64.1 12.42 65.21"/>
      <polygon class="e" points="39.66 20.21 37.27 14.18 40.44 12.04 39.66 20.21"/>
      <path class="e" d="M20.7,57.18l-6.09-1.68,2.42-2.56c1.38,1.29,2.17,2.02,3.67,4.24Z"/>
      <path class="e" d="M51.52,43.44c-.74.16-2.56-.18-2.67-.85l-.5-3.01c1.36.98,2.29,2.07,3.18,3.86Z"/>
    </g>
  </g>
</svg>