<?xml version="1.0" encoding="UTF-8"?>
<svg fill="#FFFFFF" id="b" data-name="Warstwa 2" xmlns="http://www.w3.org/2000/svg" viewBox="0 0 62.69 58.64">
  <defs>
    <style>
      .e {
        fill:#FFFFFF;
      }
    </style>
  </defs>
  <g id="c" data-name="Warstwa 1">
    <g id="d" data-name="Ikona_13">
      <path class="e" d="M17.63,27.67c-.24,1.76-1.03,3.7-2.16,4.77-.82.78-2.06-.48-2.62-.89-2.06-1.53-3.32-3.15-3.82-5.59-.69-3.37-2.29-6.1-4.53-8.76-1.38-1.64,2.11-5.35-.91-6.87l-2.45-1.23C.55,8.8-.08,7.79,0,7.13c.08-.61,1.03-1.62,1.7-1.63,1.21-.02,2.24.44,3.13,1.08,3.54,3.15,7.11,5.76,11.23,8.18l1.21-.31c.33-.09-.22-.99-.57-1.22l-6.94-4.4c2.24-.84,4.03-1.28,6.66-1.66,1.18,2.13,3.36,4.59,3,7.21l-1.8,13.28Z"/>
      <path class="e" d="M44.96,26.71l-1.53-10.17c-.51-3.41.95-6.96,3.24-9.4l6.31,1.68-7.08,4.51c-.31.2-.71,1.1-.44,1.16l1.19.26c4.21-2.43,7.88-5.04,11.44-8.34,1.85-1.15,3.68-1.28,4.48.21.26.47.13,1.85-.4,2.13l-3.27,1.75c-1.19.64-1.23,2.38-.73,3.41.91,1.92.33,3.21-.93,4.6-1.89,2.09-2.91,5.02-3.56,7.78-.55,2.31-1.74,3.67-3.61,5.07-.65.48-1.7,1.27-2.59,1.3-1.49-1.49-2.19-3.73-2.52-5.94Z"/>
      <path class="e" d="M12.65,52.2c3.47-2.22,6.5-3.69,10.2-4.91l2.66.74c.21.06.5.71.54.92.05.28-.64.35-1.04.45l-6.61,2.43c-2.08.76-3.84,2.33-5.53,3.86-1.04.09-2.39-1.18-2.65-2.29l-1.86-7.9c-.77-3.27-1.92-6.72-.04-9.91l2.4-4.07,1.86,1.8c-2.43,2.6-3.4,5.9-2.04,9.38,4.68-3.93,9.67-7.26,15.12-10.25.57.33.61,1.79.1,1.88-.87.15-1.95.4-2.55.68s-.87,1.58-.93,2.46l-9.93,7.25c-.66.48-1.2,2.08-.98,2.85l1.29,4.66Z"/>
      <path class="e" d="M40.01,47.33c3.81,1.23,6.61,2.61,10.12,4.87l1.17-4.34c.37-1.36-.31-2.91-1.47-3.74l-9.19-6.54c-.13-.83-.44-2.25-1.01-2.63-.77-.51-1.71-.67-2.98-.71l.38-1.91c5.56,3.06,10.36,6.15,15.24,10.45,1.37-3.34.41-6.72-2.08-9.5l1.86-1.57c3.46,3.97,4.23,8.83,2.28,13.53-.35,3-1.04,5.74-1.98,8.66-.58.84-1.42,1.54-2.31,1.86-1.57-1.54-2.99-2.89-4.98-3.64l-7.59-2.86c-.27-.1-.57-.27-.71-.4s.27-.82.46-.87l2.79-.67Z"/>
      <path class="e" d="M34.99,49.61c-2.85.28-2.99,3.21-3.46,2.97-1.44-.73-.88-2.66-3.63-2.98l-.67-2.3c-.36-1.24-4.27-.63-3.67-2.68.18-.63,1.28-.99,1.9-.85l1.08.25c.26.06.53-.57.85-.99.34-.45,1.61.32,1.83.97.34,1.03,1.1,1.71,1.99,1.77,2.34.17,2.82-4.09,4.11-2.67,1.64,1.81,2.96-.12,3.8,1.25.34.55-.27,1.71-.84,1.84l-2.73.65-.56,2.76Z"/>
      <path class="e" d="M35.44,56.64c.07.85-.66,1.99-1.57,1.99h-5.06c-1.88.01-1.2-2.91-1.76-3.32-1.26-.93-2.64-.33-3.31-1.34-.22-.34-.13-1.24.11-1.57.69-.93,2.66.11,2.93-.21l.83-.97c.9-1.05,1.44,2.5,3.61,2.67,2.39.18,2.97-3.81,3.88-2.74l.86,1.01c.33.38,1.79-.71,2.92.26.31.27.4,1.28.14,1.61-.94,1.17-3.82.04-3.6,2.6Z"/>
      <path class="e" d="M35.12,41.29c-3.29.7-2.61,2.66-3.64,3.04s-.46-2.46-3.77-2.98l-.59-2.17c-.26-.98-3.26-.3-3.36-2.12s2.09-.19,3.92-1.87c1.16-1.06,1.49,2.73,3.86,2.69,1.85-.03,2.53-3.39,3.22-2.89l1.25.89,2.73.31c.29.03.38,1.38.11,1.51l-1.37.64-1.73.66c-.47.18-.52,1.55-.64,2.28Z"/>
      <path class="e" d="M35.15,33.26c-3.06,1.03-2.51,2.28-3.61,3.36-.45.45-.79-2.33-3.68-3.36l-.72-2.02c-.23-.65-2.3-.4-3.33-1.31-.31-.27-.21-1.17.04-1.49.92-1.16,2.87.71,3.95-1.23,1.84.82,1.84,3.49,4.02,2.91,1.82-.49,1.57-2.8,3.19-2.78,1.08,1.72,2.32.17,3.68.91.36.2.56,1.14.35,1.5s-1,.66-1.5.8l-1.81.53c-.41.12-.49,1.35-.59,2.17Z"/>
      <path class="e" d="M34.98,25.75c-2.85.9-3.28,3.23-3.47,3.08-1.25-1-.93-2.29-3.69-2.97l-.59-1.86c-.25-.8-2.04-.28-3.3-1.38-.33-.29-.09-1.69.36-1.68l2.39.02,1.25-.81c.74-.47,1.53,2.56,3.32,2.71,2.26.19,1.95-2.93,3.84-2.56,1.27,1.57,3.61-.27,4,1.46.11.5-.76,1.4-1.26,1.5l-1.97.4c-.49.1-.73,1.36-.88,2.09Z"/>
      <path class="e" d="M35.11,18.49l-2.52,1.31c-.35.79-.94,1.51-1.59,1.62-.63-1.76-1.67-2.38-3.28-2.62l-.55-1.86c-.26-.86-3.45-.19-3.51-2.02-.06-1.75,2.05-.48,4.02-1.46,1.38-.69,1.74,2.26,3.51,2.34,2.11.09,2.09-2.31,3.62-2.41,1.66,1.03,4.48-.19,4.29,1.54-.08.71-.9,1.21-1.6,1.33l-1.67.28c-.42.07-.62,1.06-.73,1.95Z"/>
      <path class="e" d="M35.11,5.18l-2.18,1.04-1.5,1.69c-1.27-1.55-1.92-2.1-3.56-2.67-.2-1.2-1.03-2.4-2.64-1.85l-1.3-.76c-.32-.19-.21-1.31.09-1.53,1.22-.87,1.97.74,3.71-.85,1-.92,1.64,2.11,3.49,2.21,2.11.11,2.89-3.19,3.82-2.32.26.25.66.94.92.91l1.29-.17c.39-.05,1.16.06,1.48.26s.39,1.25.15,1.55c-.94,1.13-3.51-.3-3.76,2.49Z"/>
      <path class="e" d="M27.95,11.86l-.81-1.73c-.42-.9-3.14-.24-3.31-1.69-.08-.69.59-1.23,1.39-1.24,2.41-.02,3.11-.99,3.95.37.56.9,1.41,1.5,2.38,1.5.81,0,1.51-.9,2.2-1.6l.8-.81c.21-.21.9.46,1.2.47l2.73.13c.38.02.68,1.23.41,1.5-1.03,1.03-2.17.61-3.17,1.19-.42.25-.57,1.41-.75,1.92-1.2.38-2.33,1.03-3,1.96l-.43.6c-.36.5-.93-1.9-3.6-2.58Z"/>
      <path class="e" d="M22.36,8.65l-2.78,1.04-1.14-2.48,5.45-1.53c-1,.83-1.49,1.13-1.53,2.97Z"/>
      <path class="e" d="M43.16,9.66l-2.59-.92c-.19-1.2-.56-1.89-1.38-3.07l5.23,1.58-1.26,2.42Z"/>
      <path class="e" d="M22.94,24.1l-3.28,1.29c-.46-2.38.93-3.6,2.58-3.74l.7,2.46Z"/>
      <path class="e" d="M43.09,25.39l-3.45-1.42c.68-.99.85-1.42.83-2.31,1.51.28,3.14.87,2.63,3.73Z"/>
    </g>
  </g>
</svg>